<svg xmlns="http://www.w3.org/2000/svg" width="360.3517761230469" height="261.683837890625" viewBox="-185.85406494140625 -100.20915222167969 360.3517761230469 261.683837890625"><title>Neo4j Graph Visualization</title><desc>Created using Neo4j (http://www.neo4j.com/)</desc><g class="layer relationships"><g class="relationship" transform="translate(-1.5534864192525701 117.47467707603829) rotate(328.00248286279316)"><path class="b-outline" fill="#F16667" stroke="none" d="M 40 0.5 L 66.04127142567273 0.5 L 66.04127142567273 -0.5 L 40 -0.5 Z M 99.01002142567273 0.5 L 125.05129285134547 0.5 L 125.05129285134547 3.5 L 132.05129285134547 0 L 125.05129285134547 -3.5 L 125.05129285134547 -0.5 L 99.01002142567273 -0.5 Z"/><text text-anchor="middle" pointer-events="none" font-size="8px" fill="#000000" x="82.52564642567273" y="3" font-family="Helvetica Neue, Helvetica, Arial, sans-serif">DECAY</text></g><g class="relationship" transform="translate(-1.5534864192525701 117.47467707603829) rotate(271.32444454451036)"><path class="b-outline" fill="#F16667" stroke="none" d="M 40 0.5 L 66.88074531286567 0.5 L 66.88074531286567 -0.5 L 40 -0.5 Z M 99.84949531286567 0.5 L 126.73024062573134 0.5 L 126.73024062573134 3.5 L 133.73024062573134 0 L 126.73024062573134 -3.5 L 126.73024062573134 -0.5 L 99.84949531286567 -0.5 Z"/><text text-anchor="middle" pointer-events="none" font-size="8px" fill="#000000" x="83.36512031286567" y="3" font-family="Helvetica Neue, Helvetica, Arial, sans-serif">DECAY</text></g><g class="relationship" transform="translate(-1.5534864192525701 117.47467707603829) rotate(215.22900061380483)"><path class="b-outline" fill="#F16667" stroke="none" d="M 40 0.5 L 65.89434074786304 0.5 L 65.89434074786304 -0.5 L 40 -0.5 Z M 98.86309074786304 0.5 L 124.75743149572608 0.5 L 124.75743149572608 3.5 L 131.75743149572608 0 L 124.75743149572608 -3.5 L 124.75743149572608 -0.5 L 98.86309074786304 -0.5 Z"/><text text-anchor="middle" pointer-events="none" font-size="8px" fill="#000000" x="82.37871574786304" y="3" transform="rotate(180 82.37871574786304 0)" font-family="Helvetica Neue, Helvetica, Arial, sans-serif">DECAY</text></g></g><g class="layer nodes"><g class="node" aria-label="graph-node6" transform="translate(-1.5534864192525701,117.47467707603829)"><circle class="b-outline" cx="0" cy="0" r="40" fill="#C990C0" stroke="#b261a5" stroke-width="2px"/><text class="caption" text-anchor="middle" pointer-events="none" x="0" y="8" font-size="16px" fill="#FFFFFF" font-family="Helvetica Neue, Helvetica, Arial, sans-serif"> 7</text></g><g class="node" aria-label="graph-node10" transform="translate(137.99770276090769,30.281824287220942)"><circle class="b-outline" cx="0" cy="0" r="32.5" fill="#F16667" stroke="#eb2728" stroke-width="2px"/><text class="caption" text-anchor="middle" pointer-events="none" x="0" y="8" font-size="16px" fill="#FFFFFF" font-family="Helvetica Neue, Helvetica, Arial, sans-serif"> 11</text></g><g class="node" aria-label="graph-node13" transform="translate(2.4620899479709526,-56.20914961577984)"><circle class="b-outline" cx="0" cy="0" r="40" fill="#C990C0" stroke="#b261a5" stroke-width="2px"/><text class="caption" text-anchor="middle" pointer-events="none" x="0" y="8" font-size="16px" fill="#FFFFFF" font-family="Helvetica Neue, Helvetica, Arial, sans-serif"> 14</text></g><g class="node" aria-label="graph-node16" transform="translate(-141.85406457010265,18.397116324139223)"><circle class="b-outline" cx="0" cy="0" r="40" fill="#C990C0" stroke="#b261a5" stroke-width="2px"/><text class="caption" text-anchor="middle" pointer-events="none" x="0" y="8" font-size="16px" fill="#FFFFFF" font-family="Helvetica Neue, Helvetica, Arial, sans-serif"> 17</text></g></g></svg>