<svg xmlns="http://www.w3.org/2000/svg" width="539.4403076171875" height="535.325927734375" viewBox="-191.4922332763672 -303.7370300292969 539.4403076171875 535.325927734375"><title>Neo4j Graph Visualization</title><desc>Created using Neo4j (http://www.neo4j.com/)</desc><g class="layer relationships"><g class="relationship" transform="translate(73.4460188926986 -39.14221786950272) rotate(428.2855531587577)"><path class="b-outline" fill="#F16667" stroke="none" d="M 40 0.5 L 96.22860658081336 0.5 L 96.22860658081336 -0.5 L 40 -0.5 Z M 129.19735658081336 0.5 L 185.42596316162673 0.5 L 185.42596316162673 3.5 L 192.42596316162673 0 L 185.42596316162673 -3.5 L 185.42596316162673 -0.5 L 129.19735658081336 -0.5 Z"/><text text-anchor="middle" pointer-events="none" font-size="8px" fill="#000000" x="112.71298158081336" y="3" font-family="Helvetica Neue, Helvetica, Arial, sans-serif">DECAY</text></g><g class="relationship" transform="translate(73.4460188926986 -39.14221786950272) rotate(404.6974062359496)"><path class="b-outline" fill="#F16667" stroke="none" d="M 40 0.5 L 103.77543589932986 0.5 L 103.77543589932986 -0.5 L 40 -0.5 Z M 136.74418589932986 0.5 L 200.51962179865973 0.5 L 200.51962179865973 3.5 L 207.51962179865973 0 L 200.51962179865973 -3.5 L 200.51962179865973 -0.5 L 136.74418589932986 -0.5 Z"/><text text-anchor="middle" pointer-events="none" font-size="8px" fill="#000000" x="120.25981089932986" y="3" font-family="Helvetica Neue, Helvetica, Arial, sans-serif">DECAY</text></g><g class="relationship" transform="translate(73.4460188926986 -39.14221786950272) rotate(380.560069069362)"><path class="b-outline" fill="#F16667" stroke="none" d="M 40 0.5 L 99.77037356118835 0.5 L 99.77037356118835 -0.5 L 40 -0.5 Z M 132.73912356118836 0.5 L 192.5094971223767 0.5 L 192.5094971223767 3.5 L 199.5094971223767 0 L 192.5094971223767 -3.5 L 192.5094971223767 -0.5 L 132.73912356118836 -0.5 Z"/><text text-anchor="middle" pointer-events="none" font-size="8px" fill="#000000" x="116.25474856118835" y="3" font-family="Helvetica Neue, Helvetica, Arial, sans-serif">DECAY</text></g><g class="relationship" transform="translate(73.4460188926986 -39.14221786950272) rotate(355.95586233971494)"><path class="b-outline" fill="#F16667" stroke="none" d="M 40 0.5 L 95.55432815110704 0.5 L 95.55432815110704 -0.5 L 40 -0.5 Z M 128.52307815110703 0.5 L 184.0774063022141 0.5 L 184.0774063022141 3.5 L 191.0774063022141 0 L 184.0774063022141 -3.5 L 184.0774063022141 -0.5 L 128.52307815110703 -0.5 Z"/><text text-anchor="middle" pointer-events="none" font-size="8px" fill="#000000" x="112.03870315110704" y="3" font-family="Helvetica Neue, Helvetica, Arial, sans-serif">DECAY</text></g><g class="relationship" transform="translate(73.4460188926986 -39.14221786950272) rotate(328.4288933921973)"><path class="b-outline" fill="#F16667" stroke="none" d="M 40 0.5 L 95.77478039188016 0.5 L 95.77478039188016 -0.5 L 40 -0.5 Z M 128.74353039188014 0.5 L 184.5183107837603 0.5 L 184.5183107837603 3.5 L 191.5183107837603 0 L 184.5183107837603 -3.5 L 184.5183107837603 -0.5 L 128.74353039188014 -0.5 Z"/><text text-anchor="middle" pointer-events="none" font-size="8px" fill="#000000" x="112.25915539188016" y="3" font-family="Helvetica Neue, Helvetica, Arial, sans-serif">DECAY</text></g><g class="relationship" transform="translate(73.4460188926986 -39.14221786950272) rotate(301.6713255726386)"><path class="b-outline" fill="#F16667" stroke="none" d="M 40 0.5 L 93.5108035721858 0.5 L 93.5108035721858 -0.5 L 40 -0.5 Z M 126.4795535721858 0.5 L 179.9903571443716 0.5 L 179.9903571443716 3.5 L 186.9903571443716 0 L 179.9903571443716 -3.5 L 179.9903571443716 -0.5 L 126.4795535721858 -0.5 Z"/><text text-anchor="middle" pointer-events="none" font-size="8px" fill="#000000" x="109.9951785721858" y="3" font-family="Helvetica Neue, Helvetica, Arial, sans-serif">DECAY</text></g><g class="relationship" transform="translate(73.4460188926986 -39.14221786950272) rotate(245.19566160287735)"><path class="b-outline" fill="#F16667" stroke="none" d="M 40 0.5 L 88.35608766647404 0.5 L 88.35608766647404 -0.5 L 40 -0.5 Z M 121.32483766647404 0.5 L 169.68092533294808 0.5 L 169.68092533294808 3.5 L 176.68092533294808 0 L 169.68092533294808 -3.5 L 169.68092533294808 -0.5 L 121.32483766647404 -0.5 Z"/><text text-anchor="middle" pointer-events="none" font-size="8px" fill="#000000" x="104.84046266647404" y="3" transform="rotate(180 104.84046266647404 0)" font-family="Helvetica Neue, Helvetica, Arial, sans-serif">DECAY</text></g><g class="relationship" transform="translate(73.4460188926986 -39.14221786950272) rotate(274.898994672969)"><path class="b-outline" fill="#F16667" stroke="none" d="M 40 0.5 L 90.71745056203879 0.5 L 90.71745056203879 -0.5 L 40 -0.5 Z M 123.68620056203879 0.5 L 174.40365112407758 0.5 L 174.40365112407758 3.5 L 181.40365112407758 0 L 174.40365112407758 -3.5 L 174.40365112407758 -0.5 L 123.68620056203879 -0.5 Z"/><text text-anchor="middle" pointer-events="none" font-size="8px" fill="#000000" x="107.20182556203879" y="3" font-family="Helvetica Neue, Helvetica, Arial, sans-serif">DECAY</text></g><g class="relationship" transform="translate(73.4460188926986 -39.14221786950272) rotate(186.31784499452988)"><path class="b-outline" fill="#F16667" stroke="none" d="M 40 0.5 L 91.1597482069596 0.5 L 91.1597482069596 -0.5 L 40 -0.5 Z M 124.1284982069596 0.5 L 175.2882464139192 0.5 L 175.2882464139192 3.5 L 182.2882464139192 0 L 175.2882464139192 -3.5 L 175.2882464139192 -0.5 L 124.1284982069596 -0.5 Z"/><text text-anchor="middle" pointer-events="none" font-size="8px" fill="#000000" x="107.6441232069596" y="3" transform="rotate(180 107.6441232069596 0)" font-family="Helvetica Neue, Helvetica, Arial, sans-serif">DECAY</text></g><g class="relationship" transform="translate(73.4460188926986 -39.14221786950272) rotate(515.034329252603)"><path class="b-outline" fill="#F16667" stroke="none" d="M 40 0.5 L 91.61279348317534 0.5 L 91.61279348317534 -0.5 L 40 -0.5 Z M 124.58154348317534 0.5 L 176.19433696635068 0.5 L 176.19433696635068 3.5 L 183.19433696635068 0 L 176.19433696635068 -3.5 L 176.19433696635068 -0.5 L 124.58154348317534 -0.5 Z"/><text text-anchor="middle" pointer-events="none" font-size="8px" fill="#000000" x="108.09716848317534" y="3" transform="rotate(180 108.09716848317534 0)" font-family="Helvetica Neue, Helvetica, Arial, sans-serif">DECAY</text></g><g class="relationship" transform="translate(73.4460188926986 -39.14221786950272) rotate(216.59008315299968)"><path class="b-outline" fill="#F16667" stroke="none" d="M 40 0.5 L 85.63514515829473 0.5 L 85.63514515829473 -0.5 L 40 -0.5 Z M 118.60389515829473 0.5 L 164.23904031658947 0.5 L 164.23904031658947 3.5 L 171.23904031658947 0 L 164.23904031658947 -3.5 L 164.23904031658947 -0.5 L 118.60389515829473 -0.5 Z"/><text text-anchor="middle" pointer-events="none" font-size="8px" fill="#000000" x="102.11952015829473" y="3" transform="rotate(180 102.11952015829473 0)" font-family="Helvetica Neue, Helvetica, Arial, sans-serif">DECAY</text></g><g class="relationship" transform="translate(73.4460188926986 -39.14221786950272) rotate(484.58924250664325)"><path class="b-outline" fill="#F16667" stroke="none" d="M 40 0.5 L 86.93863837367367 0.5 L 86.93863837367367 -0.5 L 40 -0.5 Z M 119.90738837367367 0.5 L 166.84602674734734 0.5 L 166.84602674734734 3.5 L 173.84602674734734 0 L 166.84602674734734 -3.5 L 166.84602674734734 -0.5 L 119.90738837367367 -0.5 Z"/><text text-anchor="middle" pointer-events="none" font-size="8px" fill="#000000" x="103.42301337367367" y="3" transform="rotate(180 103.42301337367367 0)" font-family="Helvetica Neue, Helvetica, Arial, sans-serif">DECAY</text></g><g class="relationship" transform="translate(73.4460188926986 -39.14221786950272) rotate(455.31539327675756)"><path class="b-outline" fill="#F16667" stroke="none" d="M 40 0.5 L 93.87076520730253 0.5 L 93.87076520730253 -0.5 L 40 -0.5 Z M 126.83951520730253 0.5 L 180.71028041460505 0.5 L 180.71028041460505 3.5 L 187.71028041460505 0 L 180.71028041460505 -3.5 L 180.71028041460505 -0.5 L 126.83951520730253 -0.5 Z"/><text text-anchor="middle" pointer-events="none" font-size="8px" fill="#000000" x="110.35514020730253" y="3" transform="rotate(180 110.35514020730253 0)" font-family="Helvetica Neue, Helvetica, Arial, sans-serif">DECAY</text></g></g><g class="layer nodes"><g class="node" aria-label="graph-node24" transform="translate(73.4460188926986,-39.14221786950272)"><circle class="b-outline" cx="0" cy="0" r="40" fill="#C990C0" stroke="#b261a5" stroke-width="2px"/><text class="caption" text-anchor="middle" pointer-events="none" x="0" y="8" font-size="16px" fill="#FFFFFF" font-family="Helvetica Neue, Helvetica, Arial, sans-serif"> 25</text></g><g class="node" aria-label="graph-node101" transform="translate(156.66435652757713,169.8228442472847)"><circle class="b-outline" cx="0" cy="0" r="32.5" fill="#F16667" stroke="#eb2728" stroke-width="2px"/><text class="caption" text-anchor="middle" pointer-events="none" x="0" y="8" font-size="16px" fill="#FFFFFF" font-family="Helvetica Neue, Helvetica, Arial, sans-serif"> 102</text></g><g class="node" aria-label="graph-node343" transform="translate(244.0594824323241,129.67858922306073)"><circle class="b-outline" cx="0" cy="0" r="32.5" fill="#F16667" stroke="#eb2728" stroke-width="2px"/><text class="caption" text-anchor="middle" pointer-events="none" x="0" y="8" font-size="16px" fill="#FFFFFF" font-family="Helvetica Neue, Helvetica, Arial, sans-serif"> 344</text></g><g class="node" aria-label="graph-node102" transform="translate(297.6998426880712,44.97093047823025)"><circle class="b-outline" cx="0" cy="0" r="40" fill="#C990C0" stroke="#b261a5" stroke-width="2px"/><text class="caption" text-anchor="middle" pointer-events="none" x="0" y="8" font-size="16px" fill="#FFFFFF" font-family="Helvetica Neue, Helvetica, Arial, sans-serif"> 103</text></g><g class="node" aria-label="graph-node344" transform="translate(303.94804650757146,-55.438934372863756)"><circle class="b-outline" cx="0" cy="0" r="40" fill="#C990C0" stroke="#b261a5" stroke-width="2px"/><text class="caption" text-anchor="middle" pointer-events="none" x="0" y="8" font-size="16px" fill="#FFFFFF" font-family="Helvetica Neue, Helvetica, Arial, sans-serif"> 345</text></g><g class="node" aria-label="graph-node103" transform="translate(270.697550827,-160.35509415637708)"><circle class="b-outline" cx="0" cy="0" r="40" fill="#C990C0" stroke="#b261a5" stroke-width="2px"/><text class="caption" text-anchor="middle" pointer-events="none" x="0" y="8" font-size="16px" fill="#FFFFFF" font-family="Helvetica Neue, Helvetica, Arial, sans-serif"> 104</text></g><g class="node" aria-label="graph-node345" transform="translate(192.62634929695747,-232.32780501632135)"><circle class="b-outline" cx="0" cy="0" r="40" fill="#C990C0" stroke="#b261a5" stroke-width="2px"/><text class="caption" text-anchor="middle" pointer-events="none" x="0" y="8" font-size="16px" fill="#FFFFFF" font-family="Helvetica Neue, Helvetica, Arial, sans-serif"> 346</text></g><g class="node" aria-label="graph-node354" transform="translate(-17.456140046493985,-235.83339942916592)"><circle class="b-outline" cx="0" cy="0" r="40" fill="#C990C0" stroke="#b261a5" stroke-width="2px"/><text class="caption" text-anchor="middle" pointer-events="none" x="0" y="8" font-size="16px" fill="#FFFFFF" font-family="Helvetica Neue, Helvetica, Arial, sans-serif"> 355</text></g><g class="node" aria-label="graph-node110" transform="translate(92.3537669304842,-259.73703602081804)"><circle class="b-outline" cx="0" cy="0" r="40" fill="#C990C0" stroke="#b261a5" stroke-width="2px"/><text class="caption" text-anchor="middle" pointer-events="none" x="0" y="8" font-size="16px" fill="#FFFFFF" font-family="Helvetica Neue, Helvetica, Arial, sans-serif"> 111</text></g><g class="node" aria-label="graph-node351" transform="translate(-147.49221099774172,-63.60367871415009)"><circle class="b-outline" cx="0" cy="0" r="40" fill="#C990C0" stroke="#b261a5" stroke-width="2px"/><text class="caption" text-anchor="middle" pointer-events="none" x="0" y="8" font-size="16px" fill="#FFFFFF" font-family="Helvetica Neue, Helvetica, Arial, sans-serif"> 352</text></g><g class="node" aria-label="graph-node108" transform="translate(-128.89322663530862,55.06256848982041)"><circle class="b-outline" cx="0" cy="0" r="40" fill="#C990C0" stroke="#b261a5" stroke-width="2px"/><text class="caption" text-anchor="middle" pointer-events="none" x="0" y="8" font-size="16px" fill="#FFFFFF" font-family="Helvetica Neue, Helvetica, Arial, sans-serif"> 109</text></g><g class="node" aria-label="graph-node348" transform="translate(-96.16217050982678,-165.05883409417254)"><circle class="b-outline" cx="0" cy="0" r="40" fill="#C990C0" stroke="#b261a5" stroke-width="2px"/><text class="caption" text-anchor="middle" pointer-events="none" x="0" y="8" font-size="16px" fill="#FFFFFF" font-family="Helvetica Neue, Helvetica, Arial, sans-serif"> 349</text></g><g class="node" aria-label="graph-node106" transform="translate(-47.9520584236831,136.90502005121277)"><circle class="b-outline" cx="0" cy="0" r="40" fill="#C990C0" stroke="#b261a5" stroke-width="2px"/><text class="caption" text-anchor="middle" pointer-events="none" x="0" y="8" font-size="16px" fill="#FFFFFF" font-family="Helvetica Neue, Helvetica, Arial, sans-serif"> 107</text></g><g class="node" aria-label="graph-node349" transform="translate(52.35137142539186,187.5888731937392)"><circle class="b-outline" cx="0" cy="0" r="40" fill="#C990C0" stroke="#b261a5" stroke-width="2px"/><text class="caption" text-anchor="middle" pointer-events="none" x="0" y="8" font-size="16px" fill="#FFFFFF" font-family="Helvetica Neue, Helvetica, Arial, sans-serif"> 350</text></g></g></svg>