<svg xmlns="http://www.w3.org/2000/svg" width="536.8853759765625" height="410.1270751953125" viewBox="-332.7784423828125 -179.23538208007812 536.8853759765625 410.1270751953125"><title>Neo4j Graph Visualization</title><desc>Created using Neo4j (http://www.neo4j.com/)</desc><g class="layer relationships"><g class="relationship" transform="translate(-17.406910496812895 20.67111669932787) rotate(515.8921435724017)"><path class="b-outline" fill="#F16667" stroke="none" d="M 40 0.5 L 55.490520227560424 0.5 L 55.490520227560424 -0.5 L 40 -0.5 Z M 88.45927022756042 0.5 L 103.94979045512085 0.5 L 103.94979045512085 3.5 L 110.94979045512085 0 L 103.94979045512085 -3.5 L 103.94979045512085 -0.5 L 88.45927022756042 -0.5 Z"/><text text-anchor="middle" pointer-events="none" font-size="8px" fill="#000000" x="71.97489522756042" y="3" transform="rotate(180 71.97489522756042 0)" font-family="Helvetica Neue, Helvetica, Arial, sans-serif">DECAY</text></g><g class="relationship" transform="translate(-17.406910496812895 20.67111669932787) rotate(356.9401110254912)"><path class="b-outline" fill="#F16667" stroke="none" d="M 40 0.5 L 68.8992751321098 0.5 L 68.8992751321098 -0.5 L 40 -0.5 Z M 101.8680251321098 0.5 L 130.7673002642196 0.5 L 130.7673002642196 3.5 L 137.7673002642196 0 L 130.7673002642196 -3.5 L 130.7673002642196 -0.5 L 101.8680251321098 -0.5 Z"/><text text-anchor="middle" pointer-events="none" font-size="8px" fill="#000000" x="85.3836501321098" y="3" font-family="Helvetica Neue, Helvetica, Arial, sans-serif">DECAY</text></g><g class="relationship" transform="translate(-17.406910496812895 20.67111669932787) rotate(264.1871579168587)"><path class="b-outline" fill="#F16667" stroke="none" d="M 40 0.5 L 53.944988413819516 0.5 L 53.944988413819516 -0.5 L 40 -0.5 Z M 86.91373841381952 0.5 L 100.85872682763903 0.5 L 100.85872682763903 3.5 L 107.85872682763903 0 L 100.85872682763903 -3.5 L 100.85872682763903 -0.5 L 86.91373841381952 -0.5 Z"/><text text-anchor="middle" pointer-events="none" font-size="8px" fill="#000000" x="70.42936341381952" y="3" transform="rotate(180 70.42936341381952 0)" font-family="Helvetica Neue, Helvetica, Arial, sans-serif">DECAY</text></g><g class="relationship" transform="translate(-17.406910496812895 20.67111669932787) rotate(473.6879601871609)"><path class="b-outline" fill="#F16667" stroke="none" d="M 40 0.5 L 78.61744557558649 0.5 L 78.61744557558649 -0.5 L 40 -0.5 Z M 111.58619557558649 0.5 L 150.20364115117297 0.5 L 150.20364115117297 3.5 L 157.20364115117297 0 L 150.20364115117297 -3.5 L 150.20364115117297 -0.5 L 111.58619557558649 -0.5 Z"/><text text-anchor="middle" pointer-events="none" font-size="8px" fill="#000000" x="95.10182057558649" y="3" transform="rotate(180 95.10182057558649 0)" font-family="Helvetica Neue, Helvetica, Arial, sans-serif">DECAY</text></g><g class="relationship" transform="translate(-17.406910496812895 20.67111669932787) rotate(316.38243172454474)"><path class="b-outline" fill="#F16667" stroke="none" d="M 40 0.5 L 102.20331825884168 0.5 L 102.20331825884168 -0.5 L 40 -0.5 Z M 135.17206825884168 0.5 L 197.37538651768335 0.5 L 197.37538651768335 3.5 L 204.37538651768335 0 L 197.37538651768335 -3.5 L 197.37538651768335 -0.5 L 135.17206825884168 -0.5 Z"/><text text-anchor="middle" pointer-events="none" font-size="8px" fill="#000000" x="118.68769325884168" y="3" font-family="Helvetica Neue, Helvetica, Arial, sans-serif">DECAY</text></g><g class="relationship" transform="translate(-17.406910496812895 20.67111669932787) rotate(216.5655561656689)"><path class="b-outline" fill="#F16667" stroke="none" d="M 40 0.5 L 61.32695496443894 0.5 L 61.32695496443894 -0.5 L 40 -0.5 Z M 94.29570496443894 0.5 L 115.62265992887788 0.5 L 115.62265992887788 3.5 L 122.62265992887788 0 L 115.62265992887788 -3.5 L 115.62265992887788 -0.5 L 94.29570496443894 -0.5 Z"/><text text-anchor="middle" pointer-events="none" font-size="8px" fill="#000000" x="77.81132996443894" y="3" transform="rotate(180 77.81132996443894 0)" font-family="Helvetica Neue, Helvetica, Arial, sans-serif">DECAY</text></g><g class="relationship" transform="translate(-17.406910496812895 20.67111669932787) rotate(420.9461987120109)"><path class="b-outline" fill="#F16667" stroke="none" d="M 40 0.5 L 72.22954579947319 0.5 L 72.22954579947319 -0.5 L 40 -0.5 Z M 105.19829579947319 0.5 L 137.42784159894637 0.5 L 137.42784159894637 3.5 L 144.42784159894637 0 L 137.42784159894637 -3.5 L 137.42784159894637 -0.5 L 105.19829579947319 -0.5 Z"/><text text-anchor="middle" pointer-events="none" font-size="8px" fill="#000000" x="88.71392079947319" y="3" font-family="Helvetica Neue, Helvetica, Arial, sans-serif">DECAY</text></g><g class="relationship" transform="translate(-17.406910496812895 20.67111669932787) rotate(180.59232501010047)"><path class="b-outline" fill="#F16667" stroke="none" d="M 40 0.5 L 115.70863545874462 0.5 L 115.70863545874462 -0.5 L 40 -0.5 Z M 148.67738545874462 0.5 L 224.38602091748925 0.5 L 224.38602091748925 3.5 L 231.38602091748925 0 L 224.38602091748925 -3.5 L 224.38602091748925 -0.5 L 148.67738545874462 -0.5 Z"/><text text-anchor="middle" pointer-events="none" font-size="8px" fill="#000000" x="132.19301045874462" y="3" transform="rotate(180 132.19301045874462 0)" font-family="Helvetica Neue, Helvetica, Arial, sans-serif">DECAY</text></g><g class="relationship" transform="translate(-17.406910496812895 20.67111669932787) rotate(389.25903355050474)"><path class="b-outline" fill="#F16667" stroke="none" d="M 40 0.5 L 71.99196946877713 0.5 L 71.99196946877713 -0.5 L 40 -0.5 Z M 104.96071946877713 0.5 L 136.95268893755426 0.5 L 136.95268893755426 3.5 L 143.95268893755426 0 L 136.95268893755426 -3.5 L 136.95268893755426 -0.5 L 104.96071946877713 -0.5 Z"/><text text-anchor="middle" pointer-events="none" font-size="8px" fill="#000000" x="88.47634446877713" y="3" font-family="Helvetica Neue, Helvetica, Arial, sans-serif">DECAY</text></g></g><g class="layer nodes"><g class="node" aria-label="graph-node7" transform="translate(-17.406910496812895,20.67111669932787)"><circle class="b-outline" cx="0" cy="0" r="40" fill="#C990C0" stroke="#b261a5" stroke-width="2px"/><text class="caption" text-anchor="middle" pointer-events="none" x="0" y="8" font-size="16px" fill="#FFFFFF" font-family="Helvetica Neue, Helvetica, Arial, sans-serif"> 8</text></g><g class="node" aria-label="graph-node102" transform="translate(-155.19058522250927,82.32740768028444)"><circle class="b-outline" cx="0" cy="0" r="40" fill="#C990C0" stroke="#b261a5" stroke-width="2px"/><text class="caption" text-anchor="middle" pointer-events="none" x="0" y="8" font-size="16px" fill="#FFFFFF" font-family="Helvetica Neue, Helvetica, Arial, sans-serif"> 103</text></g><g class="node" aria-label="graph-node344" transform="translate(160.1069441824366,11.181941806666615)"><circle class="b-outline" cx="0" cy="0" r="40" fill="#C990C0" stroke="#b261a5" stroke-width="2px"/><text class="caption" text-anchor="middle" pointer-events="none" x="0" y="8" font-size="16px" fill="#FFFFFF" font-family="Helvetica Neue, Helvetica, Arial, sans-serif"> 345</text></g><g class="node" aria-label="graph-node105" transform="translate(-32.381936461720755,-126.42732549650475)"><circle class="b-outline" cx="0" cy="0" r="40" fill="#C990C0" stroke="#b261a5" stroke-width="2px"/><text class="caption" text-anchor="middle" pointer-events="none" x="0" y="8" font-size="16px" fill="#FFFFFF" font-family="Helvetica Neue, Helvetica, Arial, sans-serif"> 106</text></g><g class="node" aria-label="graph-node101" transform="translate(-93.62136430535543,194.39166383373723)"><circle class="b-outline" cx="0" cy="0" r="32.5" fill="#F16667" stroke="#eb2728" stroke-width="2px"/><text class="caption" text-anchor="middle" pointer-events="none" x="0" y="8" font-size="16px" fill="#FFFFFF" font-family="Helvetica Neue, Helvetica, Arial, sans-serif"> 102</text></g><g class="node" aria-label="graph-node343" transform="translate(154.08148275737875,-142.7353694540608)"><circle class="b-outline" cx="0" cy="0" r="32.5" fill="#F16667" stroke="#eb2728" stroke-width="2px"/><text class="caption" text-anchor="middle" pointer-events="none" x="0" y="8" font-size="16px" fill="#FFFFFF" font-family="Helvetica Neue, Helvetica, Arial, sans-serif"> 344</text></g><g class="node" aria-label="graph-node104" transform="translate(-148.02148827030976,-76.21005585444854)"><circle class="b-outline" cx="0" cy="0" r="40" fill="#C990C0" stroke="#b261a5" stroke-width="2px"/><text class="caption" text-anchor="middle" pointer-events="none" x="0" y="8" font-size="16px" fill="#FFFFFF" font-family="Helvetica Neue, Helvetica, Arial, sans-serif"> 105</text></g><g class="node" aria-label="graph-node346" transform="translate(72.15690812856161,181.89131130933038)"><circle class="b-outline" cx="0" cy="0" r="40" fill="#C990C0" stroke="#b261a5" stroke-width="2px"/><text class="caption" text-anchor="middle" pointer-events="none" x="0" y="8" font-size="16px" fill="#FFFFFF" font-family="Helvetica Neue, Helvetica, Arial, sans-serif"> 347</text></g><g class="node" aria-label="graph-node103" transform="translate(-288.7784293947602,17.865572108888557)"><circle class="b-outline" cx="0" cy="0" r="40" fill="#C990C0" stroke="#b261a5" stroke-width="2px"/><text class="caption" text-anchor="middle" pointer-events="none" x="0" y="8" font-size="16px" fill="#FFFFFF" font-family="Helvetica Neue, Helvetica, Arial, sans-serif"> 104</text></g><g class="node" aria-label="graph-node345" transform="translate(143.0769026454363,110.57961177448882)"><circle class="b-outline" cx="0" cy="0" r="40" fill="#C990C0" stroke="#b261a5" stroke-width="2px"/><text class="caption" text-anchor="middle" pointer-events="none" x="0" y="8" font-size="16px" fill="#FFFFFF" font-family="Helvetica Neue, Helvetica, Arial, sans-serif"> 346</text></g></g></svg>