<svg xmlns="http://www.w3.org/2000/svg" width="550.5330810546875" height="514.7839965820312" viewBox="-169.26632690429688 -301.87542724609375 550.5330810546875 514.7839965820312"><title>Neo4j Graph Visualization</title><desc>Created using Neo4j (http://www.neo4j.com/)</desc><g class="layer relationships"><g class="relationship" transform="translate(92.34438606895462 -47.06115516599053) rotate(437.30929281253884)"><path class="b-outline" fill="#F16667" stroke="none" d="M 40 0.5 L 98.29851099425738 0.5 L 98.29851099425738 -0.5 L 40 -0.5 Z M 131.26726099425738 0.5 L 189.56577198851477 0.5 L 189.56577198851477 3.5 L 196.56577198851477 0 L 189.56577198851477 -3.5 L 189.56577198851477 -0.5 L 131.26726099425738 -0.5 Z"/><text text-anchor="middle" pointer-events="none" font-size="8px" fill="#000000" x="114.78288599425738" y="3" font-family="Helvetica Neue, Helvetica, Arial, sans-serif">DECAY</text></g><g class="relationship" transform="translate(92.34438606895462 -47.06115516599053) rotate(411.7343647059111)"><path class="b-outline" fill="#F16667" stroke="none" d="M 40 0.5 L 102.39847940919037 0.5 L 102.39847940919037 -0.5 L 40 -0.5 Z M 135.36722940919037 0.5 L 197.76570881838074 0.5 L 197.76570881838074 3.5 L 204.76570881838074 0 L 197.76570881838074 -3.5 L 197.76570881838074 -0.5 L 135.36722940919037 -0.5 Z"/><text text-anchor="middle" pointer-events="none" font-size="8px" fill="#000000" x="118.88285440919037" y="3" font-family="Helvetica Neue, Helvetica, Arial, sans-serif">DECAY</text></g><g class="relationship" transform="translate(92.34438606895462 -47.06115516599053) rotate(384.91396405159304)"><path class="b-outline" fill="#F16667" stroke="none" d="M 40 0.5 L 106.77257999382532 0.5 L 106.77257999382532 -0.5 L 40 -0.5 Z M 139.74132999382533 0.5 L 206.51390998765064 0.5 L 206.51390998765064 3.5 L 213.51390998765064 0 L 206.51390998765064 -3.5 L 206.51390998765064 -0.5 L 139.74132999382533 -0.5 Z"/><text text-anchor="middle" pointer-events="none" font-size="8px" fill="#000000" x="123.25695499382532" y="3" font-family="Helvetica Neue, Helvetica, Arial, sans-serif">DECAY</text></g><g class="relationship" transform="translate(92.34438606895462 -47.06115516599053) rotate(361.1905946637347)"><path class="b-outline" fill="#F16667" stroke="none" d="M 40 0.5 L 102.50322448164223 0.5 L 102.50322448164223 -0.5 L 40 -0.5 Z M 135.47197448164223 0.5 L 197.97519896328447 0.5 L 197.97519896328447 3.5 L 204.97519896328447 0 L 197.97519896328447 -3.5 L 197.97519896328447 -0.5 L 135.47197448164223 -0.5 Z"/><text text-anchor="middle" pointer-events="none" font-size="8px" fill="#000000" x="118.98759948164223" y="3" font-family="Helvetica Neue, Helvetica, Arial, sans-serif">DECAY</text></g><g class="relationship" transform="translate(92.34438606895462 -47.06115516599053) rotate(333.91998697068993)"><path class="b-outline" fill="#F16667" stroke="none" d="M 40 0.5 L 91.93119306646344 0.5 L 91.93119306646344 -0.5 L 40 -0.5 Z M 124.89994306646344 0.5 L 176.83113613292687 0.5 L 176.83113613292687 3.5 L 183.83113613292687 0 L 176.83113613292687 -3.5 L 176.83113613292687 -0.5 L 124.89994306646344 -0.5 Z"/><text text-anchor="middle" pointer-events="none" font-size="8px" fill="#000000" x="108.41556806646344" y="3" font-family="Helvetica Neue, Helvetica, Arial, sans-serif">DECAY</text></g><g class="relationship" transform="translate(92.34438606895462 -47.06115516599053) rotate(303.87114151747716)"><path class="b-outline" fill="#F16667" stroke="none" d="M 40 0.5 L 86.53511300277327 0.5 L 86.53511300277327 -0.5 L 40 -0.5 Z M 119.50386300277327 0.5 L 166.03897600554654 0.5 L 166.03897600554654 3.5 L 173.03897600554654 0 L 166.03897600554654 -3.5 L 166.03897600554654 -0.5 L 119.50386300277327 -0.5 Z"/><text text-anchor="middle" pointer-events="none" font-size="8px" fill="#000000" x="103.01948800277327" y="3" font-family="Helvetica Neue, Helvetica, Arial, sans-serif">DECAY</text></g><g class="relationship" transform="translate(92.34438606895462 -47.06115516599053) rotate(247.42408776468898)"><path class="b-outline" fill="#F16667" stroke="none" d="M 40 0.5 L 91.78584531965484 0.5 L 91.78584531965484 -0.5 L 40 -0.5 Z M 124.75459531965484 0.5 L 176.54044063930968 0.5 L 176.54044063930968 3.5 L 183.54044063930968 0 L 176.54044063930968 -3.5 L 176.54044063930968 -0.5 L 124.75459531965484 -0.5 Z"/><text text-anchor="middle" pointer-events="none" font-size="8px" fill="#000000" x="108.27022031965484" y="3" transform="rotate(180 108.27022031965484 0)" font-family="Helvetica Neue, Helvetica, Arial, sans-serif">DECAY</text></g><g class="relationship" transform="translate(92.34438606895462 -47.06115516599053) rotate(274.8527869811248)"><path class="b-outline" fill="#F16667" stroke="none" d="M 40 0.5 L 85.80195759995378 0.5 L 85.80195759995378 -0.5 L 40 -0.5 Z M 118.77070759995378 0.5 L 164.57266519990756 0.5 L 164.57266519990756 3.5 L 171.57266519990756 0 L 164.57266519990756 -3.5 L 164.57266519990756 -0.5 L 118.77070759995378 -0.5 Z"/><text text-anchor="middle" pointer-events="none" font-size="8px" fill="#000000" x="102.28633259995378" y="3" font-family="Helvetica Neue, Helvetica, Arial, sans-serif">DECAY</text></g><g class="relationship" transform="translate(92.34438606895462 -47.06115516599053) rotate(192.31552641778035)"><path class="b-outline" fill="#F16667" stroke="none" d="M 40 0.5 L 91.38379802466345 0.5 L 91.38379802466345 -0.5 L 40 -0.5 Z M 124.35254802466345 0.5 L 175.7363460493269 0.5 L 175.7363460493269 3.5 L 182.7363460493269 0 L 175.7363460493269 -3.5 L 175.7363460493269 -0.5 L 124.35254802466345 -0.5 Z"/><text text-anchor="middle" pointer-events="none" font-size="8px" fill="#000000" x="107.86817302466345" y="3" transform="rotate(180 107.86817302466345 0)" font-family="Helvetica Neue, Helvetica, Arial, sans-serif">DECAY</text></g><g class="relationship" transform="translate(92.34438606895462 -47.06115516599053) rotate(527.2010578897555)"><path class="b-outline" fill="#F16667" stroke="none" d="M 40 0.5 L 90.46837337635728 0.5 L 90.46837337635728 -0.5 L 40 -0.5 Z M 123.43712337635728 0.5 L 173.90549675271455 0.5 L 173.90549675271455 3.5 L 180.90549675271455 0 L 173.90549675271455 -3.5 L 173.90549675271455 -0.5 L 123.43712337635728 -0.5 Z"/><text text-anchor="middle" pointer-events="none" font-size="8px" fill="#000000" x="106.95274837635728" y="3" transform="rotate(180 106.95274837635728 0)" font-family="Helvetica Neue, Helvetica, Arial, sans-serif">DECAY</text></g><g class="relationship" transform="translate(92.34438606895462 -47.06115516599053) rotate(218.8331933669445)"><path class="b-outline" fill="#F16667" stroke="none" d="M 40 0.5 L 93.82704232178824 0.5 L 93.82704232178824 -0.5 L 40 -0.5 Z M 126.79579232178824 0.5 L 180.62283464357648 0.5 L 180.62283464357648 3.5 L 187.62283464357648 0 L 180.62283464357648 -3.5 L 180.62283464357648 -0.5 L 126.79579232178824 -0.5 Z"/><text text-anchor="middle" pointer-events="none" font-size="8px" fill="#000000" x="110.31141732178824" y="3" transform="rotate(180 110.31141732178824 0)" font-family="Helvetica Neue, Helvetica, Arial, sans-serif">DECAY</text></g><g class="relationship" transform="translate(92.34438606895462 -47.06115516599053) rotate(496.28728267772175)"><path class="b-outline" fill="#F16667" stroke="none" d="M 40 0.5 L 89.3439681415307 0.5 L 89.3439681415307 -0.5 L 40 -0.5 Z M 122.3127181415307 0.5 L 171.6566862830614 0.5 L 171.6566862830614 3.5 L 178.6566862830614 0 L 171.6566862830614 -3.5 L 171.6566862830614 -0.5 L 122.3127181415307 -0.5 Z"/><text text-anchor="middle" pointer-events="none" font-size="8px" fill="#000000" x="105.8283431415307" y="3" transform="rotate(180 105.8283431415307 0)" font-family="Helvetica Neue, Helvetica, Arial, sans-serif">DECAY</text></g><g class="relationship" transform="translate(92.34438606895462 -47.06115516599053) rotate(465.22597670233137)"><path class="b-outline" fill="#F16667" stroke="none" d="M 40 0.5 L 90.46121381041308 0.5 L 90.46121381041308 -0.5 L 40 -0.5 Z M 123.42996381041308 0.5 L 173.89117762082617 0.5 L 173.89117762082617 3.5 L 180.89117762082617 0 L 173.89117762082617 -3.5 L 173.89117762082617 -0.5 L 123.42996381041308 -0.5 Z"/><text text-anchor="middle" pointer-events="none" font-size="8px" fill="#000000" x="106.94558881041308" y="3" transform="rotate(180 106.94558881041308 0)" font-family="Helvetica Neue, Helvetica, Arial, sans-serif">DECAY</text></g></g><g class="layer nodes"><g class="node" aria-label="graph-node125" transform="translate(92.34438606895462,-47.06115516599053)"><circle class="b-outline" cx="0" cy="0" r="40" fill="#C990C0" stroke="#b261a5" stroke-width="2px"/><text class="caption" text-anchor="middle" pointer-events="none" x="0" y="8" font-size="16px" fill="#FFFFFF" font-family="Helvetica Neue, Helvetica, Arial, sans-serif"> 126</text></g><g class="node" aria-label="graph-node0" transform="translate(142.66738265374934,176.40858307930517)"><circle class="b-outline" cx="0" cy="0" r="32.5" fill="#F16667" stroke="#eb2728" stroke-width="2px"/><text class="caption" text-anchor="middle" pointer-events="none" x="0" y="8" font-size="16px" fill="#FFFFFF" font-family="Helvetica Neue, Helvetica, Arial, sans-serif"> 1</text></g><g class="node" aria-label="graph-node202" transform="translate(239.2849920758788,139.2275317889787)"><circle class="b-outline" cx="0" cy="0" r="32.5" fill="#F16667" stroke="#eb2728" stroke-width="2px"/><text class="caption" text-anchor="middle" pointer-events="none" x="0" y="8" font-size="16px" fill="#FFFFFF" font-family="Helvetica Neue, Helvetica, Arial, sans-serif"> 203</text></g><g class="node" aria-label="graph-node1" transform="translate(322.2666396835534,59.73331964432329)"><circle class="b-outline" cx="0" cy="0" r="40" fill="#C990C0" stroke="#b261a5" stroke-width="2px"/><text class="caption" text-anchor="middle" pointer-events="none" x="0" y="8" font-size="16px" fill="#FFFFFF" font-family="Helvetica Neue, Helvetica, Arial, sans-serif"> 2</text></g><g class="node" aria-label="graph-node203" transform="translate(337.26669679471803,-41.97098661736497)"><circle class="b-outline" cx="0" cy="0" r="40" fill="#C990C0" stroke="#b261a5" stroke-width="2px"/><text class="caption" text-anchor="middle" pointer-events="none" x="0" y="8" font-size="16px" fill="#FFFFFF" font-family="Helvetica Neue, Helvetica, Arial, sans-serif"> 204</text></g><g class="node" aria-label="graph-node2" transform="translate(293.385257248224,-145.46311458772803)"><circle class="b-outline" cx="0" cy="0" r="40" fill="#C990C0" stroke="#b261a5" stroke-width="2px"/><text class="caption" text-anchor="middle" pointer-events="none" x="0" y="8" font-size="16px" fill="#FFFFFF" font-family="Helvetica Neue, Helvetica, Arial, sans-serif"> 3</text></g><g class="node" aria-label="graph-node204" transform="translate(211.0767554796248,-223.94594747900987)"><circle class="b-outline" cx="0" cy="0" r="40" fill="#C990C0" stroke="#b261a5" stroke-width="2px"/><text class="caption" text-anchor="middle" pointer-events="none" x="0" y="8" font-size="16px" fill="#FFFFFF" font-family="Helvetica Neue, Helvetica, Arial, sans-serif"> 205</text></g><g class="node" aria-label="graph-node213" transform="translate(6.525610098418042,-253.47207128269108)"><circle class="b-outline" cx="0" cy="0" r="40" fill="#C990C0" stroke="#b261a5" stroke-width="2px"/><text class="caption" text-anchor="middle" pointer-events="none" x="0" y="8" font-size="16px" fill="#FFFFFF" font-family="Helvetica Neue, Helvetica, Arial, sans-serif"> 214</text></g><g class="node" aria-label="graph-node210" transform="translate(110.2425625340835,-257.87540501408614)"><circle class="b-outline" cx="0" cy="0" r="40" fill="#C990C0" stroke="#b261a5" stroke-width="2px"/><text class="caption" text-anchor="middle" pointer-events="none" x="0" y="8" font-size="16px" fill="#FFFFFF" font-family="Helvetica Neue, Helvetica, Arial, sans-serif"> 211</text></g><g class="node" aria-label="graph-node7" transform="translate(-125.26630888139098,-94.56973643962093)"><circle class="b-outline" cx="0" cy="0" r="40" fill="#C990C0" stroke="#b261a5" stroke-width="2px"/><text class="caption" text-anchor="middle" pointer-events="none" x="0" y="8" font-size="16px" fill="#FFFFFF" font-family="Helvetica Neue, Helvetica, Arial, sans-serif"> 8</text></g><g class="node" aria-label="graph-node211" transform="translate(-123.07237005042569,1.8761483821926248)"><circle class="b-outline" cx="0" cy="0" r="40" fill="#C990C0" stroke="#b261a5" stroke-width="2px"/><text class="caption" text-anchor="middle" pointer-events="none" x="0" y="8" font-size="16px" fill="#FFFFFF" font-family="Helvetica Neue, Helvetica, Arial, sans-serif"> 212</text></g><g class="node" aria-label="graph-node207" transform="translate(-84.96807093098857,-189.79323790781928)"><circle class="b-outline" cx="0" cy="0" r="40" fill="#C990C0" stroke="#b261a5" stroke-width="2px"/><text class="caption" text-anchor="middle" pointer-events="none" x="0" y="8" font-size="16px" fill="#FFFFFF" font-family="Helvetica Neue, Helvetica, Arial, sans-serif"> 208</text></g><g class="node" aria-label="graph-node5" transform="translate(-65.70367996008733,104.0399873868331)"><circle class="b-outline" cx="0" cy="0" r="40" fill="#C990C0" stroke="#b261a5" stroke-width="2px"/><text class="caption" text-anchor="middle" pointer-events="none" x="0" y="8" font-size="16px" fill="#FFFFFF" font-family="Helvetica Neue, Helvetica, Arial, sans-serif"> 6</text></g><g class="node" aria-label="graph-node208" transform="translate(34.33247168511352,166.07619524504668)"><circle class="b-outline" cx="0" cy="0" r="40" fill="#C990C0" stroke="#b261a5" stroke-width="2px"/><text class="caption" text-anchor="middle" pointer-events="none" x="0" y="8" font-size="16px" fill="#FFFFFF" font-family="Helvetica Neue, Helvetica, Arial, sans-serif"> 209</text></g></g></svg>