<svg xmlns="http://www.w3.org/2000/svg" width="591.3240966796875" height="404.308837890625" viewBox="-274.4594421386719 -171.10394287109375 591.3240966796875 404.308837890625"><title>Neo4j Graph Visualization</title><desc>Created using Neo4j (http://www.neo4j.com/)</desc><g class="layer relationships"><g class="relationship" transform="translate(4.081868663487144 45.706650771572704) rotate(407.00361692361463)"><path class="b-outline" fill="#F16667" stroke="none" d="M 40 0.5 L 76.10711895502801 0.5 L 76.10711895502801 -0.5 L 40 -0.5 Z M 109.07586895502801 0.5 L 145.18298791005603 0.5 L 145.18298791005603 3.5 L 152.18298791005603 0 L 145.18298791005603 -3.5 L 145.18298791005603 -0.5 L 109.07586895502801 -0.5 Z"/><text text-anchor="middle" pointer-events="none" font-size="8px" fill="#000000" x="92.59149395502801" y="3" font-family="Helvetica Neue, Helvetica, Arial, sans-serif">DECAY</text></g><g class="relationship" transform="translate(4.081868663487144 45.706650771572704) rotate(359.1569527785756)"><path class="b-outline" fill="#F16667" stroke="none" d="M 40 0.5 L 114.42156047800938 0.5 L 114.42156047800938 -0.5 L 40 -0.5 Z M 147.39031047800938 0.5 L 221.81187095601877 0.5 L 221.81187095601877 3.5 L 228.81187095601877 0 L 221.81187095601877 -3.5 L 221.81187095601877 -0.5 L 147.39031047800938 -0.5 Z"/><text text-anchor="middle" pointer-events="none" font-size="8px" fill="#000000" x="130.90593547800938" y="3" font-family="Helvetica Neue, Helvetica, Arial, sans-serif">DECAY</text></g><g class="relationship" transform="translate(4.081868663487144 45.706650771572704) rotate(314.4592489328577)"><path class="b-outline" fill="#F16667" stroke="none" d="M 40 0.5 L 76.16168958756427 0.5 L 76.16168958756427 -0.5 L 40 -0.5 Z M 109.13043958756427 0.5 L 145.29212917512854 0.5 L 145.29212917512854 3.5 L 152.29212917512854 0 L 145.29212917512854 -3.5 L 145.29212917512854 -0.5 L 109.13043958756427 -0.5 Z"/><text text-anchor="middle" pointer-events="none" font-size="8px" fill="#000000" x="92.64606458756427" y="3" font-family="Helvetica Neue, Helvetica, Arial, sans-serif">DECAY</text></g><g class="relationship" transform="translate(4.081868663487144 45.706650771572704) rotate(257.96060104371804)"><path class="b-outline" fill="#F16667" stroke="none" d="M 40 0.5 L 68.36420131920515 0.5 L 68.36420131920515 -0.5 L 40 -0.5 Z M 101.33295131920515 0.5 L 129.6971526384103 0.5 L 129.6971526384103 3.5 L 136.6971526384103 0 L 129.6971526384103 -3.5 L 129.6971526384103 -0.5 L 101.33295131920515 -0.5 Z"/><text text-anchor="middle" pointer-events="none" font-size="8px" fill="#000000" x="84.84857631920515" y="3" transform="rotate(180 84.84857631920515 0)" font-family="Helvetica Neue, Helvetica, Arial, sans-serif">DECAY</text></g><g class="relationship" transform="translate(4.081868663487144 45.706650771572704) rotate(207.1191555823591)"><path class="b-outline" fill="#F16667" stroke="none" d="M 40 0.5 L 102.71326416366841 0.5 L 102.71326416366841 -0.5 L 40 -0.5 Z M 135.6820141636684 0.5 L 198.39527832733683 0.5 L 198.39527832733683 3.5 L 205.39527832733683 0 L 198.39527832733683 -3.5 L 198.39527832733683 -0.5 L 135.6820141636684 -0.5 Z"/><text text-anchor="middle" pointer-events="none" font-size="8px" fill="#000000" x="119.19763916366841" y="3" transform="rotate(180 119.19763916366841 0)" font-family="Helvetica Neue, Helvetica, Arial, sans-serif">DECAY</text></g><g class="relationship" transform="translate(4.081868663487144 45.706650771572704) rotate(525.9120110049917)"><path class="b-outline" fill="#F16667" stroke="none" d="M 40 0.5 L 108.53908333691025 0.5 L 108.53908333691025 -0.5 L 40 -0.5 Z M 141.50783333691027 0.5 L 210.0469166738205 0.5 L 210.0469166738205 3.5 L 217.0469166738205 0 L 210.0469166738205 -3.5 L 210.0469166738205 -0.5 L 141.50783333691027 -0.5 Z"/><text text-anchor="middle" pointer-events="none" font-size="8px" fill="#000000" x="125.02345833691025" y="3" transform="rotate(180 125.02345833691025 0)" font-family="Helvetica Neue, Helvetica, Arial, sans-serif">DECAY</text></g><g class="relationship" transform="translate(4.081868663487144 45.706650771572704) rotate(475.11456050218186)"><path class="b-outline" fill="#F16667" stroke="none" d="M 40 0.5 L 67.14758674550542 0.5 L 67.14758674550542 -0.5 L 40 -0.5 Z M 100.11633674550542 0.5 L 127.26392349101084 0.5 L 127.26392349101084 3.5 L 134.26392349101084 0 L 127.26392349101084 -3.5 L 127.26392349101084 -0.5 L 100.11633674550542 -0.5 Z"/><text text-anchor="middle" pointer-events="none" font-size="8px" fill="#000000" x="83.63196174550542" y="3" transform="rotate(180 83.63196174550542 0)" font-family="Helvetica Neue, Helvetica, Arial, sans-serif">DECAY</text></g></g><g class="layer nodes"><g class="node" aria-label="graph-node106" transform="translate(4.081868663487144,45.706650771572704)"><circle class="b-outline" cx="0" cy="0" r="40" fill="#C990C0" stroke="#b261a5" stroke-width="2px"/><text class="caption" text-anchor="middle" pointer-events="none" x="0" y="8" font-size="16px" fill="#FFFFFF" font-family="Helvetica Neue, Helvetica, Arial, sans-serif"> 107</text></g><g class="node" aria-label="graph-node3" transform="translate(135.14147822123908,186.26866407746684)"><circle class="b-outline" cx="0" cy="0" r="40" fill="#C990C0" stroke="#b261a5" stroke-width="2px"/><text class="caption" text-anchor="middle" pointer-events="none" x="0" y="8" font-size="16px" fill="#FFFFFF" font-family="Helvetica Neue, Helvetica, Arial, sans-serif"> 4</text></g><g class="node" aria-label="graph-node2" transform="translate(272.8646412167714,41.7515091249628)"><circle class="b-outline" cx="0" cy="0" r="40" fill="#C990C0" stroke="#b261a5" stroke-width="2px"/><text class="caption" text-anchor="middle" pointer-events="none" x="0" y="8" font-size="16px" fill="#FFFFFF" font-family="Helvetica Neue, Helvetica, Arial, sans-serif"> 3</text></g><g class="node" aria-label="graph-node204" transform="translate(138.76362102531334,-91.54162252704491)"><circle class="b-outline" cx="0" cy="0" r="40" fill="#C990C0" stroke="#b261a5" stroke-width="2px"/><text class="caption" text-anchor="middle" pointer-events="none" x="0" y="8" font-size="16px" fill="#FFFFFF" font-family="Helvetica Neue, Helvetica, Arial, sans-serif"> 205</text></g><g class="node" aria-label="graph-node1" transform="translate(-32.7743755454937,-127.1039421136137)"><circle class="b-outline" cx="0" cy="0" r="40" fill="#C990C0" stroke="#b261a5" stroke-width="2px"/><text class="caption" text-anchor="middle" pointer-events="none" x="0" y="8" font-size="16px" fill="#FFFFFF" font-family="Helvetica Neue, Helvetica, Arial, sans-serif"> 2</text></g><g class="node" aria-label="graph-node203" transform="translate(-214.33476403962598,-66.15494757202552)"><circle class="b-outline" cx="0" cy="0" r="40" fill="#C990C0" stroke="#b261a5" stroke-width="2px"/><text class="caption" text-anchor="middle" pointer-events="none" x="0" y="8" font-size="16px" fill="#FFFFFF" font-family="Helvetica Neue, Helvetica, Arial, sans-serif"> 204</text></g><g class="node" aria-label="graph-node0" transform="translate(-237.95944121241345,106.44928765020178)"><circle class="b-outline" cx="0" cy="0" r="32.5" fill="#F16667" stroke="#eb2728" stroke-width="2px"/><text class="caption" text-anchor="middle" pointer-events="none" x="0" y="8" font-size="16px" fill="#FFFFFF" font-family="Helvetica Neue, Helvetica, Arial, sans-serif"> 1</text></g><g class="node" aria-label="graph-node202" transform="translate(-66.69766668412588,196.70487445017005)"><circle class="b-outline" cx="0" cy="0" r="32.5" fill="#F16667" stroke="#eb2728" stroke-width="2px"/><text class="caption" text-anchor="middle" pointer-events="none" x="0" y="8" font-size="16px" fill="#FFFFFF" font-family="Helvetica Neue, Helvetica, Arial, sans-serif"> 203</text></g></g></svg>