<svg xmlns="http://www.w3.org/2000/svg" width="1039.978515625" height="908.0109252929688" viewBox="-647.8659057617188 -402.8960876464844 1039.978515625 908.0109252929688"><title>Neo4j Graph Visualization</title><desc>Created using Neo4j (http://www.neo4j.com/)</desc><g class="layer relationships"><g class="relationship" transform="translate(-114.28164313220174 310.8541587513386) rotate(402.67903120492855)"><path class="b-outline" fill="#F16667" stroke="none" d="M 40 0.5 L 103.07732463134984 0.5 L 103.07732463134984 -0.5 L 40 -0.5 Z M 136.04607463134982 0.5 L 199.12339926269968 0.5 L 199.12339926269968 3.5 L 206.12339926269968 0 L 199.12339926269968 -3.5 L 199.12339926269968 -0.5 L 136.04607463134982 -0.5 Z"/><text text-anchor="middle" pointer-events="none" font-size="8px" fill="#000000" x="119.56169963134984" y="3" font-family="Helvetica Neue, Helvetica, Arial, sans-serif">DECAY</text></g><g class="relationship" transform="translate(-114.28164313220174 310.8541587513386) rotate(313.20662260685594)"><path class="b-outline" fill="#F16667" stroke="none" d="M 40 0.5 L 64.59389245424708 0.5 L 64.59389245424708 -0.5 L 40 -0.5 Z M 97.56264245424708 0.5 L 122.15653490849417 0.5 L 122.15653490849417 3.5 L 129.15653490849417 0 L 122.15653490849417 -3.5 L 122.15653490849417 -0.5 L 97.56264245424708 -0.5 Z"/><text text-anchor="middle" pointer-events="none" font-size="8px" fill="#000000" x="81.07826745424708" y="3" font-family="Helvetica Neue, Helvetica, Arial, sans-serif">DECAY</text></g><g class="relationship" transform="translate(-114.28164313220174 310.8541587513386) rotate(351.0030653353572)"><path class="b-outline" fill="#F16667" stroke="none" d="M 40 0.5 L 84.61474283251351 0.5 L 84.61474283251351 -0.5 L 40 -0.5 Z M 117.58349283251351 0.5 L 162.19823566502703 0.5 L 162.19823566502703 3.5 L 169.19823566502703 0 L 162.19823566502703 -3.5 L 162.19823566502703 -0.5 L 117.58349283251351 -0.5 Z"/><text text-anchor="middle" pointer-events="none" font-size="8px" fill="#000000" x="101.09911783251351" y="3" font-family="Helvetica Neue, Helvetica, Arial, sans-serif">DECAY</text></g><g class="relationship" transform="translate(-114.28164313220174 310.8541587513386) rotate(233.8246534539211)"><path class="b-outline" fill="#F16667" stroke="none" d="M 40 0.5 L 58.83018050022969 0.5 L 58.83018050022969 -0.5 L 40 -0.5 Z M 91.79893050022969 0.5 L 110.62911100045937 0.5 L 110.62911100045937 3.5 L 117.62911100045937 0 L 110.62911100045937 -3.5 L 110.62911100045937 -0.5 L 91.79893050022969 -0.5 Z"/><text text-anchor="middle" pointer-events="none" font-size="8px" fill="#000000" x="75.31455550022969" y="3" transform="rotate(180 75.31455550022969 0)" font-family="Helvetica Neue, Helvetica, Arial, sans-serif">DECAY</text></g><g class="relationship" transform="translate(-114.28164313220174 310.8541587513386) rotate(380.3839804755711)"><path class="b-outline" fill="#F16667" stroke="none" d="M 40 0.5 L 75.44400251296314 0.5 L 75.44400251296314 -0.5 L 40 -0.5 Z M 108.41275251296314 0.5 L 143.85675502592628 0.5 L 143.85675502592628 3.5 L 150.85675502592628 0 L 143.85675502592628 -3.5 L 143.85675502592628 -0.5 L 108.41275251296314 -0.5 Z"/><text text-anchor="middle" pointer-events="none" font-size="8px" fill="#000000" x="91.92837751296314" y="3" font-family="Helvetica Neue, Helvetica, Arial, sans-serif">DECAY</text></g><g class="relationship" transform="translate(-114.28164313220174 310.8541587513386) rotate(275.28618367034096)"><path class="b-outline" fill="#F16667" stroke="none" d="M 40 0.5 L 44.491194288425184 0.5 L 44.491194288425184 -0.5 L 40 -0.5 Z M 77.45994428842519 0.5 L 81.95113857685037 0.5 L 81.95113857685037 3.5 L 88.95113857685037 0 L 81.95113857685037 -3.5 L 81.95113857685037 -0.5 L 77.45994428842519 -0.5 Z"/><text text-anchor="middle" pointer-events="none" font-size="8px" fill="#000000" x="60.975569288425184" y="3" font-family="Helvetica Neue, Helvetica, Arial, sans-serif">DECAY</text></g><g class="relationship" transform="translate(-480.8193901725957 45.85863640358929) rotate(392.6090593726002)"><path class="b-outline" fill="#F16667" stroke="none" d="M 40 0.5 L 65.51919846957134 0.5 L 65.51919846957134 -0.5 L 40 -0.5 Z M 98.48794846957134 0.5 L 124.00714693914267 0.5 L 124.00714693914267 3.5 L 131.00714693914267 0 L 124.00714693914267 -3.5 L 124.00714693914267 -0.5 L 98.48794846957134 -0.5 Z"/><text text-anchor="middle" pointer-events="none" font-size="8px" fill="#000000" x="82.00357346957134" y="3" font-family="Helvetica Neue, Helvetica, Arial, sans-serif">DECAY</text></g><g class="relationship" transform="translate(-480.8193901725957 45.85863640358929) rotate(320.3410883005099)"><path class="b-outline" fill="#F16667" stroke="none" d="M 40 0.5 L 64.65953071725777 0.5 L 64.65953071725777 -0.5 L 40 -0.5 Z M 97.62828071725777 0.5 L 122.28781143451553 0.5 L 122.28781143451553 3.5 L 129.28781143451553 0 L 122.28781143451553 -3.5 L 122.28781143451553 -0.5 L 97.62828071725777 -0.5 Z"/><text text-anchor="middle" pointer-events="none" font-size="8px" fill="#000000" x="81.14390571725777" y="3" font-family="Helvetica Neue, Helvetica, Arial, sans-serif">DECAY</text></g><g class="relationship" transform="translate(-480.8193901725957 45.85863640358929) rotate(447.52536689552807)"><path class="b-outline" fill="#F16667" stroke="none" d="M 40 0.5 L 48.060633112537616 0.5 L 48.060633112537616 -0.5 L 40 -0.5 Z M 81.02938311253762 0.5 L 89.09001622507523 0.5 L 89.09001622507523 3.5 L 96.09001622507523 0 L 89.09001622507523 -3.5 L 89.09001622507523 -0.5 L 81.02938311253762 -0.5 Z"/><text text-anchor="middle" pointer-events="none" font-size="8px" fill="#000000" x="64.54500811253762" y="3" font-family="Helvetica Neue, Helvetica, Arial, sans-serif">DECAY</text></g><g class="relationship" transform="translate(-480.8193901725957 45.85863640358929) rotate(265.93819872247167)"><path class="b-outline" fill="#F16667" stroke="none" d="M 40 0.5 L 60.37456008614606 0.5 L 60.37456008614606 -0.5 L 40 -0.5 Z M 93.34331008614606 0.5 L 113.71787017229212 0.5 L 113.71787017229212 3.5 L 120.71787017229212 0 L 113.71787017229212 -3.5 L 113.71787017229212 -0.5 L 93.34331008614606 -0.5 Z"/><text text-anchor="middle" pointer-events="none" font-size="8px" fill="#000000" x="76.85893508614606" y="3" transform="rotate(180 76.85893508614606 0)" font-family="Helvetica Neue, Helvetica, Arial, sans-serif">DECAY</text></g><g class="relationship" transform="translate(-480.8193901725957 45.85863640358929) rotate(499.4377562259964)"><path class="b-outline" fill="#F16667" stroke="none" d="M 40 0.5 L 57.460543875870925 0.5 L 57.460543875870925 -0.5 L 40 -0.5 Z M 90.42929387587093 0.5 L 107.88983775174185 0.5 L 107.88983775174185 3.5 L 114.88983775174185 0 L 107.88983775174185 -3.5 L 107.88983775174185 -0.5 L 90.42929387587093 -0.5 Z"/><text text-anchor="middle" pointer-events="none" font-size="8px" fill="#000000" x="73.94491887587093" y="3" transform="rotate(180 73.94491887587093 0)" font-family="Helvetica Neue, Helvetica, Arial, sans-serif">DECAY</text></g><g class="relationship" transform="translate(-480.8193901725957 45.85863640358929) rotate(234.57808951537584)"><path class="b-outline" fill="#F16667" stroke="none" d="M 40 0.5 L 99.83542174922913 0.5 L 99.83542174922913 -0.5 L 40 -0.5 Z M 132.8041717492291 0.5 L 192.63959349845825 0.5 L 192.63959349845825 3.5 L 199.63959349845825 0 L 192.63959349845825 -3.5 L 192.63959349845825 -0.5 L 132.8041717492291 -0.5 Z"/><text text-anchor="middle" pointer-events="none" font-size="8px" fill="#000000" x="116.31979674922913" y="3" transform="rotate(180 116.31979674922913 0)" font-family="Helvetica Neue, Helvetica, Arial, sans-serif">DECAY</text></g><g class="relationship" transform="translate(242.7381444871698 362.92630871185173) rotate(244.05759067246362)"><path class="b-outline" fill="#F16667" stroke="none" d="M 40 0.5 L 62.84011608072885 0.5 L 62.84011608072885 -0.5 L 40 -0.5 Z M 95.80886608072885 0.5 L 118.6489821614577 0.5 L 118.6489821614577 3.5 L 125.6489821614577 0 L 118.6489821614577 -3.5 L 118.6489821614577 -0.5 L 95.80886608072885 -0.5 Z"/><text text-anchor="middle" pointer-events="none" font-size="8px" fill="#000000" x="79.32449108072885" y="3" transform="rotate(180 79.32449108072885 0)" font-family="Helvetica Neue, Helvetica, Arial, sans-serif">DECAY</text></g><g class="relationship" transform="translate(242.7381444871698 362.92630871185173) rotate(508.8665443683968)"><path class="b-outline" fill="#F16667" stroke="none" d="M 40 0.5 L 89.84045687086368 0.5 L 89.84045687086368 -0.5 L 40 -0.5 Z M 122.80920687086368 0.5 L 172.64966374172735 0.5 L 172.64966374172735 3.5 L 179.64966374172735 0 L 172.64966374172735 -3.5 L 172.64966374172735 -0.5 L 122.80920687086368 -0.5 Z"/><text text-anchor="middle" pointer-events="none" font-size="8px" fill="#000000" x="106.32483187086368" y="3" transform="rotate(180 106.32483187086368 0)" font-family="Helvetica Neue, Helvetica, Arial, sans-serif">DECAY</text></g><g class="relationship" transform="translate(242.7381444871698 362.92630871185173) rotate(207.9174672746717)"><path class="b-outline" fill="#F16667" stroke="none" d="M 40 0.5 L 73.05886188588408 0.5 L 73.05886188588408 -0.5 L 40 -0.5 Z M 106.02761188588408 0.5 L 139.08647377176817 0.5 L 139.08647377176817 3.5 L 146.08647377176817 0 L 139.08647377176817 -3.5 L 139.08647377176817 -0.5 L 106.02761188588408 -0.5 Z"/><text text-anchor="middle" pointer-events="none" font-size="8px" fill="#000000" x="89.54323688588408" y="3" transform="rotate(180 89.54323688588408 0)" font-family="Helvetica Neue, Helvetica, Arial, sans-serif">DECAY</text></g><g class="relationship" transform="translate(242.7381444871698 362.92630871185173) rotate(280.8946980211199)"><path class="b-outline" fill="#F16667" stroke="none" d="M 40 0.5 L 61.27508907209085 0.5 L 61.27508907209085 -0.5 L 40 -0.5 Z M 94.24383907209085 0.5 L 115.5189281441817 0.5 L 115.5189281441817 3.5 L 122.5189281441817 0 L 115.5189281441817 -3.5 L 115.5189281441817 -0.5 L 94.24383907209085 -0.5 Z"/><text text-anchor="middle" pointer-events="none" font-size="8px" fill="#000000" x="77.75946407209085" y="3" font-family="Helvetica Neue, Helvetica, Arial, sans-serif">DECAY</text></g><g class="relationship" transform="translate(242.7381444871698 362.92630871185173) rotate(318.4739229700798)"><path class="b-outline" fill="#F16667" stroke="none" d="M 40 0.5 L 60.09515178496714 0.5 L 60.09515178496714 -0.5 L 40 -0.5 Z M 93.06390178496714 0.5 L 113.15905356993429 0.5 L 113.15905356993429 3.5 L 120.15905356993429 0 L 113.15905356993429 -3.5 L 113.15905356993429 -0.5 L 93.06390178496714 -0.5 Z"/><text text-anchor="middle" pointer-events="none" font-size="8px" fill="#000000" x="76.57952678496714" y="3" font-family="Helvetica Neue, Helvetica, Arial, sans-serif">DECAY</text></g><g class="relationship" transform="translate(242.7381444871698 362.92630871185173) rotate(536.3554594550669)"><path class="b-outline" fill="#F16667" stroke="none" d="M 40 0.5 L 76.52569184987385 0.5 L 76.52569184987385 -0.5 L 40 -0.5 Z M 109.49444184987385 0.5 L 146.0201336997477 0.5 L 146.0201336997477 3.5 L 153.0201336997477 0 L 146.0201336997477 -3.5 L 146.0201336997477 -0.5 L 109.49444184987385 -0.5 Z"/><text text-anchor="middle" pointer-events="none" font-size="8px" fill="#000000" x="93.01006684987385" y="3" transform="rotate(180 93.01006684987385 0)" font-family="Helvetica Neue, Helvetica, Arial, sans-serif">DECAY</text></g><g class="relationship" transform="translate(242.7381444871698 362.92630871185173) rotate(300.4443996256407)"><path class="b-outline" fill="#F16667" stroke="none" d="M 40 0.5 L 99.0942254192932 0.5 L 99.0942254192932 -0.5 L 40 -0.5 Z M 132.0629754192932 0.5 L 191.1572008385864 0.5 L 191.1572008385864 3.5 L 198.1572008385864 0 L 191.1572008385864 -3.5 L 191.1572008385864 -0.5 L 132.0629754192932 -0.5 Z"/><text text-anchor="middle" pointer-events="none" font-size="8px" fill="#000000" x="115.5786004192932" y="3" font-family="Helvetica Neue, Helvetica, Arial, sans-serif">DECAY</text></g><g class="relationship" transform="translate(220.29805996035714 58.75786857192401) rotate(466.0996452250499)"><path class="b-outline" fill="#F16667" stroke="none" d="M 40 0.5 L 68.04887232176858 0.5 L 68.04887232176858 -0.5 L 40 -0.5 Z M 101.01762232176858 0.5 L 129.06649464353717 0.5 L 129.06649464353717 3.5 L 136.06649464353717 0 L 129.06649464353717 -3.5 L 129.06649464353717 -0.5 L 101.01762232176858 -0.5 Z"/><text text-anchor="middle" pointer-events="none" font-size="8px" fill="#000000" x="84.53324732176858" y="3" transform="rotate(180 84.53324732176858 0)" font-family="Helvetica Neue, Helvetica, Arial, sans-serif">DECAY</text></g><g class="relationship" transform="translate(220.29805996035714 58.75786857192401) rotate(308.12153509962116)"><path class="b-outline" fill="#F16667" stroke="none" d="M 40 0.5 L 91.99687080249552 0.5 L 91.99687080249552 -0.5 L 40 -0.5 Z M 124.96562080249552 0.5 L 176.96249160499104 0.5 L 176.96249160499104 3.5 L 183.96249160499104 0 L 176.96249160499104 -3.5 L 176.96249160499104 -0.5 L 124.96562080249552 -0.5 Z"/><text text-anchor="middle" pointer-events="none" font-size="8px" fill="#000000" x="108.48124580249552" y="3" font-family="Helvetica Neue, Helvetica, Arial, sans-serif">DECAY</text></g><g class="relationship" transform="translate(220.29805996035714 58.75786857192401) rotate(431.1954143438081)"><path class="b-outline" fill="#F16667" stroke="none" d="M 40 0.5 L 64.02115783659411 0.5 L 64.02115783659411 -0.5 L 40 -0.5 Z M 96.98990783659411 0.5 L 121.01106567318823 0.5 L 121.01106567318823 3.5 L 128.01106567318823 0 L 121.01106567318823 -3.5 L 121.01106567318823 -0.5 L 96.98990783659411 -0.5 Z"/><text text-anchor="middle" pointer-events="none" font-size="8px" fill="#000000" x="80.50553283659411" y="3" font-family="Helvetica Neue, Helvetica, Arial, sans-serif">DECAY</text></g><g class="relationship" transform="translate(220.29805996035714 58.75786857192401) rotate(246.18672408521985)"><path class="b-outline" fill="#F16667" stroke="none" d="M 40 0.5 L 58.34482156291703 0.5 L 58.34482156291703 -0.5 L 40 -0.5 Z M 91.31357156291703 0.5 L 109.65839312583407 0.5 L 109.65839312583407 3.5 L 116.65839312583407 0 L 109.65839312583407 -3.5 L 109.65839312583407 -0.5 L 91.31357156291703 -0.5 Z"/><text text-anchor="middle" pointer-events="none" font-size="8px" fill="#000000" x="74.82919656291703" y="3" transform="rotate(180 74.82919656291703 0)" font-family="Helvetica Neue, Helvetica, Arial, sans-serif">DECAY</text></g><g class="relationship" transform="translate(220.29805996035714 58.75786857192401) rotate(416.03306121587343)"><path class="b-outline" fill="#F16667" stroke="none" d="M 40 0.5 L 106.12590190390169 0.5 L 106.12590190390169 -0.5 L 40 -0.5 Z M 139.0946519039017 0.5 L 205.22055380780338 0.5 L 205.22055380780338 3.5 L 212.22055380780338 0 L 205.22055380780338 -3.5 L 205.22055380780338 -0.5 L 139.0946519039017 -0.5 Z"/><text text-anchor="middle" pointer-events="none" font-size="8px" fill="#000000" x="122.61027690390169" y="3" font-family="Helvetica Neue, Helvetica, Arial, sans-serif">DECAY</text></g><g class="relationship" transform="translate(220.29805996035714 58.75786857192401) rotate(326.6325674391261)"><path class="b-outline" fill="#F16667" stroke="none" d="M 40 0.5 L 51.970088621683416 0.5 L 51.970088621683416 -0.5 L 40 -0.5 Z M 84.93883862168342 0.5 L 96.90892724336683 0.5 L 96.90892724336683 3.5 L 103.90892724336683 0 L 96.90892724336683 -3.5 L 96.90892724336683 -0.5 L 84.93883862168342 -0.5 Z"/><text text-anchor="middle" pointer-events="none" font-size="8px" fill="#000000" x="68.45446362168342" y="3" font-family="Helvetica Neue, Helvetica, Arial, sans-serif">DECAY</text></g><g class="relationship" transform="translate(220.29805996035714 58.75786857192401) rotate(285.87519609057773)"><path class="b-outline" fill="#F16667" stroke="none" d="M 40 0.5 L 56.48615189839292 0.5 L 56.48615189839292 -0.5 L 40 -0.5 Z M 89.45490189839292 0.5 L 105.94105379678584 0.5 L 105.94105379678584 3.5 L 112.94105379678584 0 L 105.94105379678584 -3.5 L 105.94105379678584 -0.5 L 89.45490189839292 -0.5 Z"/><text text-anchor="middle" pointer-events="none" font-size="8px" fill="#000000" x="72.97052689839292" y="3" font-family="Helvetica Neue, Helvetica, Arial, sans-serif">DECAY</text></g><g class="relationship" transform="translate(220.29805996035714 58.75786857192401) rotate(397.08722936251803)"><path class="b-outline" fill="#F16667" stroke="none" d="M 40 0.5 L 71.08626018422034 0.5 L 71.08626018422034 -0.5 L 40 -0.5 Z M 104.05501018422034 0.5 L 135.14127036844067 0.5 L 135.14127036844067 3.5 L 142.14127036844067 0 L 135.14127036844067 -3.5 L 135.14127036844067 -0.5 L 104.05501018422034 -0.5 Z"/><text text-anchor="middle" pointer-events="none" font-size="8px" fill="#000000" x="87.57063518422034" y="3" font-family="Helvetica Neue, Helvetica, Arial, sans-serif">DECAY</text></g><g class="relationship" transform="translate(-439.38507721402607 299.3099565836013) rotate(300.21824747179625)"><path class="b-outline" fill="#F16667" stroke="none" d="M 40 0.5 L 79.43388219161456 0.5 L 79.43388219161456 -0.5 L 40 -0.5 Z M 112.40263219161456 0.5 L 151.83651438322912 0.5 L 151.83651438322912 3.5 L 158.83651438322912 0 L 151.83651438322912 -3.5 L 151.83651438322912 -0.5 L 112.40263219161456 -0.5 Z"/><text text-anchor="middle" pointer-events="none" font-size="8px" fill="#000000" x="95.91825719161456" y="3" font-family="Helvetica Neue, Helvetica, Arial, sans-serif">DECAY</text></g><g class="relationship" transform="translate(-439.38507721402607 299.3099565836013) rotate(491.5250248107262)"><path class="b-outline" fill="#F16667" stroke="none" d="M 40 0.5 L 58.749810234145386 0.5 L 58.749810234145386 -0.5 L 40 -0.5 Z M 91.71856023414539 0.5 L 110.46837046829077 0.5 L 110.46837046829077 3.5 L 117.46837046829077 0 L 110.46837046829077 -3.5 L 110.46837046829077 -0.5 L 91.71856023414539 -0.5 Z"/><text text-anchor="middle" pointer-events="none" font-size="8px" fill="#000000" x="75.23418523414539" y="3" transform="rotate(180 75.23418523414539 0)" font-family="Helvetica Neue, Helvetica, Arial, sans-serif">DECAY</text></g><g class="relationship" transform="translate(-439.38507721402607 299.3099565836013) rotate(253.9812004142458)"><path class="b-outline" fill="#F16667" stroke="none" d="M 40 0.5 L 48.780693062314555 0.5 L 48.780693062314555 -0.5 L 40 -0.5 Z M 81.74944306231455 0.5 L 90.53013612462911 0.5 L 90.53013612462911 3.5 L 97.53013612462911 0 L 90.53013612462911 -3.5 L 90.53013612462911 -0.5 L 81.74944306231455 -0.5 Z"/><text text-anchor="middle" pointer-events="none" font-size="8px" fill="#000000" x="65.26506806231455" y="3" transform="rotate(180 65.26506806231455 0)" font-family="Helvetica Neue, Helvetica, Arial, sans-serif">DECAY</text></g><g class="relationship" transform="translate(-439.38507721402607 299.3099565836013) rotate(444.849989513454)"><path class="b-outline" fill="#F16667" stroke="none" d="M 40 0.5 L 66.67463421091256 0.5 L 66.67463421091256 -0.5 L 40 -0.5 Z M 99.64338421091256 0.5 L 126.31801842182512 0.5 L 126.31801842182512 3.5 L 133.31801842182512 0 L 126.31801842182512 -3.5 L 126.31801842182512 -0.5 L 99.64338421091256 -0.5 Z"/><text text-anchor="middle" pointer-events="none" font-size="8px" fill="#000000" x="83.15900921091256" y="3" font-family="Helvetica Neue, Helvetica, Arial, sans-serif">DECAY</text></g><g class="relationship" transform="translate(-439.38507721402607 299.3099565836013) rotate(225.7739103369252)"><path class="b-outline" fill="#F16667" stroke="none" d="M 40 0.5 L 93.73569309008776 0.5 L 93.73569309008776 -0.5 L 40 -0.5 Z M 126.70444309008776 0.5 L 180.44013618017553 0.5 L 180.44013618017553 3.5 L 187.44013618017553 0 L 180.44013618017553 -3.5 L 180.44013618017553 -0.5 L 126.70444309008776 -0.5 Z"/><text text-anchor="middle" pointer-events="none" font-size="8px" fill="#000000" x="110.22006809008776" y="3" transform="rotate(180 110.22006809008776 0)" font-family="Helvetica Neue, Helvetica, Arial, sans-serif">DECAY</text></g><g class="relationship" transform="translate(-439.38507721402607 299.3099565836013) rotate(406.32392668102807)"><path class="b-outline" fill="#F16667" stroke="none" d="M 40 0.5 L 67.93708711282382 0.5 L 67.93708711282382 -0.5 L 40 -0.5 Z M 100.90583711282382 0.5 L 128.84292422564764 0.5 L 128.84292422564764 3.5 L 135.84292422564764 0 L 128.84292422564764 -3.5 L 128.84292422564764 -0.5 L 100.90583711282382 -0.5 Z"/><text text-anchor="middle" pointer-events="none" font-size="8px" fill="#000000" x="84.42146211282382" y="3" font-family="Helvetica Neue, Helvetica, Arial, sans-serif">DECAY</text></g><g class="relationship" transform="translate(209.92794198424696 -203.96519908672713) rotate(392.69591043473633)"><path class="b-outline" fill="#F16667" stroke="none" d="M 40 0.5 L 69.32166375076281 0.5 L 69.32166375076281 -0.5 L 40 -0.5 Z M 102.29041375076281 0.5 L 131.61207750152562 0.5 L 131.61207750152562 3.5 L 138.61207750152562 0 L 131.61207750152562 -3.5 L 131.61207750152562 -0.5 L 102.29041375076281 -0.5 Z"/><text text-anchor="middle" pointer-events="none" font-size="8px" fill="#000000" x="85.80603875076281" y="3" font-family="Helvetica Neue, Helvetica, Arial, sans-serif">DECAY</text></g><g class="relationship" transform="translate(209.92794198424696 -203.96519908672713) rotate(215.22741589794805)"><path class="b-outline" fill="#F16667" stroke="none" d="M 40 0.5 L 77.08408827475483 0.5 L 77.08408827475483 -0.5 L 40 -0.5 Z M 110.05283827475483 0.5 L 147.13692654950967 0.5 L 147.13692654950967 3.5 L 154.13692654950967 0 L 147.13692654950967 -3.5 L 147.13692654950967 -0.5 L 110.05283827475483 -0.5 Z"/><text text-anchor="middle" pointer-events="none" font-size="8px" fill="#000000" x="93.56846327475483" y="3" transform="rotate(180 93.56846327475483 0)" font-family="Helvetica Neue, Helvetica, Arial, sans-serif">DECAY</text></g><g class="relationship" transform="translate(209.92794198424696 -203.96519908672713) rotate(416.4874071276663)"><path class="b-outline" fill="#F16667" stroke="none" d="M 40 0.5 L 96.32578130897089 0.5 L 96.32578130897089 -0.5 L 40 -0.5 Z M 129.29453130897087 0.5 L 185.62031261794178 0.5 L 185.62031261794178 3.5 L 192.62031261794178 0 L 185.62031261794178 -3.5 L 185.62031261794178 -0.5 L 129.29453130897087 -0.5 Z"/><text text-anchor="middle" pointer-events="none" font-size="8px" fill="#000000" x="112.81015630897089" y="3" font-family="Helvetica Neue, Helvetica, Arial, sans-serif">DECAY</text></g><g class="relationship" transform="translate(209.92794198424696 -203.96519908672713) rotate(316.8413879271866)"><path class="b-outline" fill="#F16667" stroke="none" d="M 40 0.5 L 67.83921861002777 0.5 L 67.83921861002777 -0.5 L 40 -0.5 Z M 100.80796861002777 0.5 L 128.64718722005554 0.5 L 128.64718722005554 3.5 L 135.64718722005554 0 L 128.64718722005554 -3.5 L 128.64718722005554 -0.5 L 100.80796861002777 -0.5 Z"/><text text-anchor="middle" pointer-events="none" font-size="8px" fill="#000000" x="84.32359361002777" y="3" font-family="Helvetica Neue, Helvetica, Arial, sans-serif">DECAY</text></g><g class="relationship" transform="translate(209.92794198424696 -203.96519908672713) rotate(471.5460683774073)"><path class="b-outline" fill="#F16667" stroke="none" d="M 40 0.5 L 51.64006795937807 0.5 L 51.64006795937807 -0.5 L 40 -0.5 Z M 84.60881795937807 0.5 L 96.24888591875614 0.5 L 96.24888591875614 3.5 L 103.24888591875614 0 L 96.24888591875614 -3.5 L 96.24888591875614 -0.5 L 84.60881795937807 -0.5 Z"/><text text-anchor="middle" pointer-events="none" font-size="8px" fill="#000000" x="68.12444295937807" y="3" transform="rotate(180 68.12444295937807 0)" font-family="Helvetica Neue, Helvetica, Arial, sans-serif">DECAY</text></g><g class="relationship" transform="translate(209.92794198424696 -203.96519908672713) rotate(245.23735379314314)"><path class="b-outline" fill="#F16667" stroke="none" d="M 40 0.5 L 68.42822044151649 0.5 L 68.42822044151649 -0.5 L 40 -0.5 Z M 101.39697044151649 0.5 L 129.82519088303297 0.5 L 129.82519088303297 3.5 L 136.82519088303297 0 L 129.82519088303297 -3.5 L 129.82519088303297 -0.5 L 101.39697044151649 -0.5 Z"/><text text-anchor="middle" pointer-events="none" font-size="8px" fill="#000000" x="84.91259544151649" y="3" transform="rotate(180 84.91259544151649 0)" font-family="Helvetica Neue, Helvetica, Arial, sans-serif">DECAY</text></g><g class="relationship" transform="translate(209.92794198424696 -203.96519908672713) rotate(427.7884745341074)"><path class="b-outline" fill="#F16667" stroke="none" d="M 40 0.5 L 50.10278401434863 0.5 L 50.10278401434863 -0.5 L 40 -0.5 Z M 83.07153401434863 0.5 L 93.17431802869726 0.5 L 93.17431802869726 3.5 L 100.17431802869726 0 L 93.17431802869726 -3.5 L 93.17431802869726 -0.5 L 83.07153401434863 -0.5 Z"/><text text-anchor="middle" pointer-events="none" font-size="8px" fill="#000000" x="66.58715901434863" y="3" font-family="Helvetica Neue, Helvetica, Arial, sans-serif">DECAY</text></g><g class="relationship" transform="translate(209.92794198424696 -203.96519908672713) rotate(279.9488578879109)"><path class="b-outline" fill="#F16667" stroke="none" d="M 40 0.5 L 66.24234938320905 0.5 L 66.24234938320905 -0.5 L 40 -0.5 Z M 99.21109938320905 0.5 L 125.45344876641809 0.5 L 125.45344876641809 3.5 L 132.4534487664181 0 L 125.45344876641809 -3.5 L 125.45344876641809 -0.5 L 99.21109938320905 -0.5 Z"/><text text-anchor="middle" pointer-events="none" font-size="8px" fill="#000000" x="82.72672438320905" y="3" font-family="Helvetica Neue, Helvetica, Arial, sans-serif">DECAY</text></g><g class="relationship" transform="translate(-418.1283039573422 -216.31003208153322) rotate(375.84013527615514)"><path class="b-outline" fill="#F16667" stroke="none" d="M 40 0.5 L 62.57989084508081 0.5 L 62.57989084508081 -0.5 L 40 -0.5 Z M 95.54864084508081 0.5 L 118.12853169016162 0.5 L 118.12853169016162 3.5 L 125.12853169016162 0 L 118.12853169016162 -3.5 L 118.12853169016162 -0.5 L 95.54864084508081 -0.5 Z"/><text text-anchor="middle" pointer-events="none" font-size="8px" fill="#000000" x="79.06426584508081" y="3" font-family="Helvetica Neue, Helvetica, Arial, sans-serif">DECAY</text></g><g class="relationship" transform="translate(-418.1283039573422 -216.31003208153322) rotate(428.72979213290637)"><path class="b-outline" fill="#F16667" stroke="none" d="M 40 0.5 L 69.03042220982195 0.5 L 69.03042220982195 -0.5 L 40 -0.5 Z M 101.99917220982195 0.5 L 131.0295944196439 0.5 L 131.0295944196439 3.5 L 138.0295944196439 0 L 131.0295944196439 -3.5 L 131.0295944196439 -0.5 L 101.99917220982195 -0.5 Z"/><text text-anchor="middle" pointer-events="none" font-size="8px" fill="#000000" x="85.51479720982195" y="3" font-family="Helvetica Neue, Helvetica, Arial, sans-serif">DECAY</text></g><g class="relationship" transform="translate(-418.1283039573422 -216.31003208153322) rotate(483.9264820719521)"><path class="b-outline" fill="#F16667" stroke="none" d="M 40 0.5 L 49.649967236078055 0.5 L 49.649967236078055 -0.5 L 40 -0.5 Z M 82.61871723607806 0.5 L 92.26868447215611 0.5 L 92.26868447215611 3.5 L 99.26868447215611 0 L 92.26868447215611 -3.5 L 92.26868447215611 -0.5 L 82.61871723607806 -0.5 Z"/><text text-anchor="middle" pointer-events="none" font-size="8px" fill="#000000" x="66.13434223607806" y="3" transform="rotate(180 66.13434223607806 0)" font-family="Helvetica Neue, Helvetica, Arial, sans-serif">DECAY</text></g><g class="relationship" transform="translate(-418.1283039573422 -216.31003208153322) rotate(339.31085821227657)"><path class="b-outline" fill="#F16667" stroke="none" d="M 40 0.5 L 62.626088434028176 0.5 L 62.626088434028176 -0.5 L 40 -0.5 Z M 95.59483843402818 0.5 L 118.22092686805635 0.5 L 118.22092686805635 3.5 L 125.22092686805635 0 L 118.22092686805635 -3.5 L 118.22092686805635 -0.5 L 95.59483843402818 -0.5 Z"/><text text-anchor="middle" pointer-events="none" font-size="8px" fill="#000000" x="79.11046343402818" y="3" font-family="Helvetica Neue, Helvetica, Arial, sans-serif">DECAY</text></g><g class="relationship" transform="translate(-418.1283039573422 -216.31003208153322) rotate(314.96417591836)"><path class="b-outline" fill="#F16667" stroke="none" d="M 40 0.5 L 92.65282770508506 0.5 L 92.65282770508506 -0.5 L 40 -0.5 Z M 125.62157770508506 0.5 L 178.27440541017012 0.5 L 178.27440541017012 3.5 L 185.27440541017012 0 L 178.27440541017012 -3.5 L 178.27440541017012 -0.5 L 125.62157770508506 -0.5 Z"/><text text-anchor="middle" pointer-events="none" font-size="8px" fill="#000000" x="109.13720270508506" y="3" font-family="Helvetica Neue, Helvetica, Arial, sans-serif">DECAY</text></g><g class="relationship" transform="translate(-418.1283039573422 -216.31003208153322) rotate(519.6907268718309)"><path class="b-outline" fill="#F16667" stroke="none" d="M 40 0.5 L 88.92165019869257 0.5 L 88.92165019869257 -0.5 L 40 -0.5 Z M 121.89040019869257 0.5 L 170.81205039738515 0.5 L 170.81205039738515 3.5 L 177.81205039738515 0 L 170.81205039738515 -3.5 L 170.81205039738515 -0.5 L 121.89040019869257 -0.5 Z"/><text text-anchor="middle" pointer-events="none" font-size="8px" fill="#000000" x="105.40602519869257" y="3" transform="rotate(180 105.40602519869257 0)" font-family="Helvetica Neue, Helvetica, Arial, sans-serif">DECAY</text></g><g class="relationship" transform="translate(-111.86584946177948 -221.6915617946063) rotate(522.6161734894552)"><path class="b-outline" fill="#F16667" stroke="none" d="M 40 0.5 L 64.77555072310997 0.5 L 64.77555072310997 -0.5 L 40 -0.5 Z M 97.74430072310997 0.5 L 122.51985144621995 0.5 L 122.51985144621995 3.5 L 129.51985144621995 0 L 122.51985144621995 -3.5 L 122.51985144621995 -0.5 L 97.74430072310997 -0.5 Z"/><text text-anchor="middle" pointer-events="none" font-size="8px" fill="#000000" x="81.25992572310997" y="3" transform="rotate(180 81.25992572310997 0)" font-family="Helvetica Neue, Helvetica, Arial, sans-serif">DECAY</text></g><g class="relationship" transform="translate(-111.86584946177948 -221.6915617946063) rotate(405.85018778494737)"><path class="b-outline" fill="#F16667" stroke="none" d="M 40 0.5 L 95.18487083204803 0.5 L 95.18487083204803 -0.5 L 40 -0.5 Z M 128.15362083204803 0.5 L 183.33849166409607 0.5 L 183.33849166409607 3.5 L 190.33849166409607 0 L 183.33849166409607 -3.5 L 183.33849166409607 -0.5 L 128.15362083204803 -0.5 Z"/><text text-anchor="middle" pointer-events="none" font-size="8px" fill="#000000" x="111.66924583204803" y="3" font-family="Helvetica Neue, Helvetica, Arial, sans-serif">DECAY</text></g><g class="relationship" transform="translate(-111.86584946177948 -221.6915617946063) rotate(197.59810598298282)"><path class="b-outline" fill="#F16667" stroke="none" d="M 40 0.5 L 67.01818579067326 0.5 L 67.01818579067326 -0.5 L 40 -0.5 Z M 99.98693579067326 0.5 L 127.00512158134651 0.5 L 127.00512158134651 3.5 L 134.00512158134651 0 L 127.00512158134651 -3.5 L 127.00512158134651 -0.5 L 99.98693579067326 -0.5 Z"/><text text-anchor="middle" pointer-events="none" font-size="8px" fill="#000000" x="83.50256079067326" y="3" transform="rotate(180 83.50256079067326 0)" font-family="Helvetica Neue, Helvetica, Arial, sans-serif">DECAY</text></g><g class="relationship" transform="translate(-111.86584946177948 -221.6915617946063) rotate(435.7063057665179)"><path class="b-outline" fill="#F16667" stroke="none" d="M 40 0.5 L 64.48289828343084 0.5 L 64.48289828343084 -0.5 L 40 -0.5 Z M 97.45164828343084 0.5 L 121.93454656686168 0.5 L 121.93454656686168 3.5 L 128.93454656686168 0 L 121.93454656686168 -3.5 L 121.93454656686168 -0.5 L 97.45164828343084 -0.5 Z"/><text text-anchor="middle" pointer-events="none" font-size="8px" fill="#000000" x="80.96727328343084" y="3" font-family="Helvetica Neue, Helvetica, Arial, sans-serif">DECAY</text></g><g class="relationship" transform="translate(-111.86584946177948 -221.6915617946063) rotate(224.30265680387868)"><path class="b-outline" fill="#F16667" stroke="none" d="M 40 0.5 L 90.21906210665506 0.5 L 90.21906210665506 -0.5 L 40 -0.5 Z M 123.18781210665506 0.5 L 173.40687421331012 0.5 L 173.40687421331012 3.5 L 180.40687421331012 0 L 173.40687421331012 -3.5 L 173.40687421331012 -0.5 L 123.18781210665506 -0.5 Z"/><text text-anchor="middle" pointer-events="none" font-size="8px" fill="#000000" x="106.70343710665506" y="3" transform="rotate(180 106.70343710665506 0)" font-family="Helvetica Neue, Helvetica, Arial, sans-serif">DECAY</text></g><g class="relationship" transform="translate(-111.86584946177948 -221.6915617946063) rotate(472.8648619951175)"><path class="b-outline" fill="#F16667" stroke="none" d="M 40 0.5 L 76.53658011578729 0.5 L 76.53658011578729 -0.5 L 40 -0.5 Z M 109.50533011578729 0.5 L 146.04191023157458 0.5 L 146.04191023157458 3.5 L 153.04191023157458 0 L 146.04191023157458 -3.5 L 146.04191023157458 -0.5 L 109.50533011578729 -0.5 Z"/><text text-anchor="middle" pointer-events="none" font-size="8px" fill="#000000" x="93.02095511578729" y="3" transform="rotate(180 93.02095511578729 0)" font-family="Helvetica Neue, Helvetica, Arial, sans-serif">DECAY</text></g><g class="relationship" transform="translate(-101.93185193104716 57.110105050030285) rotate(414.1166570365401)"><path class="b-outline" fill="#F16667" stroke="none" d="M 40 0.5 L 67.64138236379716 0.5 L 67.64138236379716 -0.5 L 40 -0.5 Z M 100.61013236379716 0.5 L 128.25151472759433 0.5 L 128.25151472759433 3.5 L 135.25151472759433 0 L 128.25151472759433 -3.5 L 128.25151472759433 -0.5 L 100.61013236379716 -0.5 Z"/><text text-anchor="middle" pointer-events="none" font-size="8px" fill="#000000" x="84.12575736379716" y="3" font-family="Helvetica Neue, Helvetica, Arial, sans-serif">DECAY</text></g><g class="relationship" transform="translate(-101.93185193104716 57.110105050030285) rotate(320.7002216483743)"><path class="b-outline" fill="#F16667" stroke="none" d="M 40 0.5 L 77.63562855120341 0.5 L 77.63562855120341 -0.5 L 40 -0.5 Z M 110.60437855120341 0.5 L 148.24000710240682 0.5 L 148.24000710240682 3.5 L 155.24000710240682 0 L 148.24000710240682 -3.5 L 148.24000710240682 -0.5 L 110.60437855120341 -0.5 Z"/><text text-anchor="middle" pointer-events="none" font-size="8px" fill="#000000" x="94.12000355120341" y="3" font-family="Helvetica Neue, Helvetica, Arial, sans-serif">DECAY</text></g><g class="relationship" transform="translate(-101.93185193104716 57.110105050030285) rotate(283.74139221438713)"><path class="b-outline" fill="#F16667" stroke="none" d="M 40 0.5 L 46.75073145145711 0.5 L 46.75073145145711 -0.5 L 40 -0.5 Z M 79.71948145145711 0.5 L 86.47021290291423 0.5 L 86.47021290291423 3.5 L 93.47021290291423 0 L 86.47021290291423 -3.5 L 86.47021290291423 -0.5 L 79.71948145145711 -0.5 Z"/><text text-anchor="middle" pointer-events="none" font-size="8px" fill="#000000" x="63.23510645145711" y="3" font-family="Helvetica Neue, Helvetica, Arial, sans-serif">DECAY</text></g><g class="relationship" transform="translate(-101.93185193104716 57.110105050030285) rotate(487.29531414452566)"><path class="b-outline" fill="#F16667" stroke="none" d="M 40 0.5 L 67.08042058800925 0.5 L 67.08042058800925 -0.5 L 40 -0.5 Z M 100.04917058800925 0.5 L 127.1295911760185 0.5 L 127.1295911760185 3.5 L 134.1295911760185 0 L 127.1295911760185 -3.5 L 127.1295911760185 -0.5 L 100.04917058800925 -0.5 Z"/><text text-anchor="middle" pointer-events="none" font-size="8px" fill="#000000" x="83.56479558800925" y="3" transform="rotate(180 83.56479558800925 0)" font-family="Helvetica Neue, Helvetica, Arial, sans-serif">DECAY</text></g><g class="relationship" transform="translate(-101.93185193104716 57.110105050030285) rotate(232.74146907253123)"><path class="b-outline" fill="#F16667" stroke="none" d="M 40 0.5 L 51.51114156692576 0.5 L 51.51114156692576 -0.5 L 40 -0.5 Z M 84.47989156692576 0.5 L 95.99103313385152 0.5 L 95.99103313385152 3.5 L 102.99103313385152 0 L 95.99103313385152 -3.5 L 95.99103313385152 -0.5 L 84.47989156692576 -0.5 Z"/><text text-anchor="middle" pointer-events="none" font-size="8px" fill="#000000" x="67.99551656692576" y="3" transform="rotate(180 67.99551656692576 0)" font-family="Helvetica Neue, Helvetica, Arial, sans-serif">DECAY</text></g><g class="relationship" transform="translate(-101.93185193104716 57.110105050030285) rotate(450.5006166750967)"><path class="b-outline" fill="#F16667" stroke="none" d="M 40 0.5 L 50.17288666438125 0.5 L 50.17288666438125 -0.5 L 40 -0.5 Z M 83.14163666438125 0.5 L 93.3145233287625 0.5 L 93.3145233287625 3.5 L 100.3145233287625 0 L 93.3145233287625 -3.5 L 93.3145233287625 -0.5 L 83.14163666438125 -0.5 Z"/><text text-anchor="middle" pointer-events="none" font-size="8px" fill="#000000" x="66.65726166438125" y="3" transform="rotate(180 66.65726166438125 0)" font-family="Helvetica Neue, Helvetica, Arial, sans-serif">DECAY</text></g></g><g class="layer nodes"><g class="node" aria-label="graph-node0" transform="translate(-538.8061739433263,411.58621260444323)"><circle class="b-outline" cx="0" cy="0" r="32.5" fill="#F16667" stroke="#eb2728" stroke-width="2px"/><text class="caption" text-anchor="middle" pointer-events="none" x="0" y="8" font-size="16px" fill="#FFFFFF" font-family="Helvetica Neue, Helvetica, Arial, sans-serif"> 1</text></g><g class="node" aria-label="graph-node38015" transform="translate(-114.28164313220174,310.8541587513386)"><circle class="b-outline" cx="0" cy="0" r="40" fill="#C990C0" stroke="#b261a5" stroke-width="2px"/><text class="caption" text-anchor="middle" pointer-events="none" x="0" y="8" font-size="16px" fill="#FFFFFF" font-family="Helvetica Neue, Helvetica, Arial, sans-serif"> 100128</text></g><g class="node" aria-label="graph-node170001" transform="translate(-480.8193901725957,45.85863640358929)"><circle class="b-outline" cx="0" cy="0" r="40" fill="#C990C0" stroke="#b261a5" stroke-width="2px"/><text class="caption" text-anchor="middle" pointer-events="none" x="0" y="8" font-size="16px" fill="#FFFFFF" font-family="Helvetica Neue, Helvetica, Arial, sans-serif"> 10570</text></g><g class="node" aria-label="graph-node243358" transform="translate(61.14538772477657,472.6147334300611)"><circle class="b-outline" cx="0" cy="0" r="32.5" fill="#F16667" stroke="#eb2728" stroke-width="2px"/><text class="caption" text-anchor="middle" pointer-events="none" x="0" y="8" font-size="16px" fill="#FFFFFF" font-family="Helvetica Neue, Helvetica, Arial, sans-serif"> 108365</text></g><g class="node" aria-label="graph-node243359" transform="translate(84.9350403355178,279.3122612417208)"><circle class="b-outline" cx="0" cy="0" r="32.5" fill="#4C8EDA" stroke="#2870c2" stroke-width="2px"/><text class="caption" text-anchor="middle" pointer-events="none" x="0" y="8" font-size="16px" fill="#FFFFFF" font-family="Helvetica Neue, Helvetica, Arial, sans-serif"> 108366</text></g><g class="node" aria-label="graph-node243361" transform="translate(57.593203954746485,374.7191456571206)"><circle class="b-outline" cx="0" cy="0" r="32.5" fill="#4C8EDA" stroke="#2870c2" stroke-width="2px"/><text class="caption" text-anchor="middle" pointer-events="none" x="0" y="8" font-size="16px" fill="#FFFFFF" font-family="Helvetica Neue, Helvetica, Arial, sans-serif"> 108368</text></g><g class="node" aria-label="graph-node775194" transform="translate(242.7381444871698,362.92630871185173)"><circle class="b-outline" cx="0" cy="0" r="40" fill="#C990C0" stroke="#b261a5" stroke-width="2px"/><text class="caption" text-anchor="middle" pointer-events="none" x="0" y="8" font-size="16px" fill="#FFFFFF" font-family="Helvetica Neue, Helvetica, Arial, sans-serif"> 132967</text></g><g class="node" aria-label="graph-node210580" transform="translate(-356.26584076711714,-57.39691676071933)"><circle class="b-outline" cx="0" cy="0" r="32.5" fill="#F16667" stroke="#eb2728" stroke-width="2px"/><text class="caption" text-anchor="middle" pointer-events="none" x="0" y="8" font-size="16px" fill="#FFFFFF" font-family="Helvetica Neue, Helvetica, Arial, sans-serif"> 14021</text></g><g class="node" aria-label="graph-node210581" transform="translate(-491.6721859567291,-106.97438543332021)"><circle class="b-outline" cx="0" cy="0" r="32.5" fill="#4C8EDA" stroke="#2870c2" stroke-width="2px"/><text class="caption" text-anchor="middle" pointer-events="none" x="0" y="8" font-size="16px" fill="#FFFFFF" font-family="Helvetica Neue, Helvetica, Arial, sans-serif"> 14022</text></g><g class="node" aria-label="graph-node210583" transform="translate(-615.3658371594612,-143.31336065950683)"><circle class="b-outline" cx="0" cy="0" r="32.5" fill="#4C8EDA" stroke="#2870c2" stroke-width="2px"/><text class="caption" text-anchor="middle" pointer-events="none" x="0" y="8" font-size="16px" fill="#FFFFFF" font-family="Helvetica Neue, Helvetica, Arial, sans-serif"> 14024</text></g><g class="node" aria-label="graph-node983002" transform="translate(173.55310376576148,220.71333216230425)"><circle class="b-outline" cx="0" cy="0" r="32.5" fill="#F16667" stroke="#eb2728" stroke-width="2px"/><text class="caption" text-anchor="middle" pointer-events="none" x="0" y="8" font-size="16px" fill="#FFFFFF" font-family="Helvetica Neue, Helvetica, Arial, sans-serif"> 142031</text></g><g class="node" aria-label="graph-node983003" transform="translate(272.0374310681721,210.70140966831397)"><circle class="b-outline" cx="0" cy="0" r="32.5" fill="#4C8EDA" stroke="#2870c2" stroke-width="2px"/><text class="caption" text-anchor="middle" pointer-events="none" x="0" y="8" font-size="16px" fill="#FFFFFF" font-family="Helvetica Neue, Helvetica, Arial, sans-serif"> 142032</text></g><g class="node" aria-label="graph-node983004" transform="translate(357.0269654930444,261.7193325197175)"><circle class="b-outline" cx="0" cy="0" r="32.5" fill="#4C8EDA" stroke="#2870c2" stroke-width="2px"/><text class="caption" text-anchor="middle" pointer-events="none" x="0" y="8" font-size="16px" fill="#FFFFFF" font-family="Helvetica Neue, Helvetica, Arial, sans-serif"> 142033</text></g><g class="node" aria-label="graph-node983005" transform="translate(359.61260737020234,164.07182869066986)"><circle class="b-outline" cx="0" cy="0" r="32.5" fill="#4C8EDA" stroke="#2870c2" stroke-width="2px"/><text class="caption" text-anchor="middle" pointer-events="none" x="0" y="8" font-size="16px" fill="#FFFFFF" font-family="Helvetica Neue, Helvetica, Arial, sans-serif"> 142034</text></g><g class="node" aria-label="graph-node631173" transform="translate(220.29805996035714,58.75786857192401)"><circle class="b-outline" cx="0" cy="0" r="40" fill="#C990C0" stroke="#b261a5" stroke-width="2px"/><text class="caption" text-anchor="middle" pointer-events="none" x="0" y="8" font-size="16px" fill="#FFFFFF" font-family="Helvetica Neue, Helvetica, Arial, sans-serif"> 168874</text></g><g class="node" aria-label="graph-node848423" transform="translate(353.92719790581634,-111.53383340968828)"><circle class="b-outline" cx="0" cy="0" r="32.5" fill="#F16667" stroke="#eb2728" stroke-width="2px"/><text class="caption" text-anchor="middle" pointer-events="none" x="0" y="8" font-size="16px" fill="#FFFFFF" font-family="Helvetica Neue, Helvetica, Arial, sans-serif"> 178644</text></g><g class="node" aria-label="graph-node848424" transform="translate(160.07427146354306,-77.70209456368538)"><circle class="b-outline" cx="0" cy="0" r="32.5" fill="#4C8EDA" stroke="#2870c2" stroke-width="2px"/><text class="caption" text-anchor="middle" pointer-events="none" x="0" y="8" font-size="16px" fill="#FFFFFF" font-family="Helvetica Neue, Helvetica, Arial, sans-serif"> 178645</text></g><g class="node" aria-label="graph-node848425" transform="translate(334.2214251123286,-16.26787570386926)"><circle class="b-outline" cx="0" cy="0" r="32.5" fill="#4C8EDA" stroke="#2870c2" stroke-width="2px"/><text class="caption" text-anchor="middle" pointer-events="none" x="0" y="8" font-size="16px" fill="#FFFFFF" font-family="Helvetica Neue, Helvetica, Arial, sans-serif"> 178646</text></g><g class="node" aria-label="graph-node848426" transform="translate(260.08241969935796,-81.13603711977264)"><circle class="b-outline" cx="0" cy="0" r="32.5" fill="#4C8EDA" stroke="#2870c2" stroke-width="2px"/><text class="caption" text-anchor="middle" pointer-events="none" x="0" y="8" font-size="16px" fill="#FFFFFF" font-family="Helvetica Neue, Helvetica, Arial, sans-serif"> 178647</text></g><g class="node" aria-label="graph-node16573" transform="translate(-439.38507721402607,299.3099565836013)"><circle class="b-outline" cx="0" cy="0" r="40" fill="#C990C0" stroke="#b261a5" stroke-width="2px"/><text class="caption" text-anchor="middle" pointer-events="none" x="0" y="8" font-size="16px" fill="#FFFFFF" font-family="Helvetica Neue, Helvetica, Arial, sans-serif"> 1832</text></g><g class="node" aria-label="graph-node1" transform="translate(-424.50064581605534,464.4585833877617)"><circle class="b-outline" cx="0" cy="0" r="32.5" fill="#4C8EDA" stroke="#2870c2" stroke-width="2px"/><text class="caption" text-anchor="middle" pointer-events="none" x="0" y="8" font-size="16px" fill="#FFFFFF" font-family="Helvetica Neue, Helvetica, Arial, sans-serif"> 2</text></g><g class="node" aria-label="graph-node360463" transform="translate(209.92794198424696,-203.96519908672713)"><circle class="b-outline" cx="0" cy="0" r="40" fill="#C990C0" stroke="#b261a5" stroke-width="2px"/><text class="caption" text-anchor="middle" pointer-events="none" x="0" y="8" font-size="16px" fill="#FFFFFF" font-family="Helvetica Neue, Helvetica, Arial, sans-serif"> 207390</text></g><g class="node" aria-label="graph-node611617" transform="translate(57.47002555327305,-311.6217180225224)"><circle class="b-outline" cx="0" cy="0" r="32.5" fill="#F16667" stroke="#eb2728" stroke-width="2px"/><text class="caption" text-anchor="middle" pointer-events="none" x="0" y="8" font-size="16px" fill="#FFFFFF" font-family="Helvetica Neue, Helvetica, Arial, sans-serif"> 217758</text></g><g class="node" aria-label="graph-node611618" transform="translate(139.00436360424308,-357.72106498247433)"><circle class="b-outline" cx="0" cy="0" r="32.5" fill="#4C8EDA" stroke="#2870c2" stroke-width="2px"/><text class="caption" text-anchor="middle" pointer-events="none" x="0" y="8" font-size="16px" fill="#FFFFFF" font-family="Helvetica Neue, Helvetica, Arial, sans-serif"> 217759</text></g><g class="node" aria-label="graph-node611619" transform="translate(332.58508077340986,-318.9812974124504)"><circle class="b-outline" cx="0" cy="0" r="32.5" fill="#4C8EDA" stroke="#2870c2" stroke-width="2px"/><text class="caption" text-anchor="middle" pointer-events="none" x="0" y="8" font-size="16px" fill="#FFFFFF" font-family="Helvetica Neue, Helvetica, Arial, sans-serif"> 217760</text></g><g class="node" aria-label="graph-node611620" transform="translate(238.42679607576275,-366.43813706535116)"><circle class="b-outline" cx="0" cy="0" r="32.5" fill="#4C8EDA" stroke="#2870c2" stroke-width="2px"/><text class="caption" text-anchor="middle" pointer-events="none" x="0" y="8" font-size="16px" fill="#FFFFFF" font-family="Helvetica Neue, Helvetica, Arial, sans-serif"> 217761</text></g><g class="node" aria-label="graph-node504844" transform="translate(-418.1283039573422,-216.31003208153322)"><circle class="b-outline" cx="0" cy="0" r="40" fill="#C990C0" stroke="#b261a5" stroke-width="2px"/><text class="caption" text-anchor="middle" pointer-events="none" x="0" y="8" font-size="16px" fill="#FFFFFF" font-family="Helvetica Neue, Helvetica, Arial, sans-serif"> 25457</text></g><g class="node" aria-label="graph-node2" transform="translate(-323.1307464935487,421.06491839451076)"><circle class="b-outline" cx="0" cy="0" r="32.5" fill="#4C8EDA" stroke="#2870c2" stroke-width="2px"/><text class="caption" text-anchor="middle" pointer-events="none" x="0" y="8" font-size="16px" fill="#FFFFFF" font-family="Helvetica Neue, Helvetica, Arial, sans-serif"> 3</text></g><g class="node" aria-label="graph-node698108" transform="translate(-266.485396223016,-173.28466123275487)"><circle class="b-outline" cx="0" cy="0" r="32.5" fill="#F16667" stroke="#eb2728" stroke-width="2px"/><text class="caption" text-anchor="middle" pointer-events="none" x="0" y="8" font-size="16px" fill="#FFFFFF" font-family="Helvetica Neue, Helvetica, Arial, sans-serif"> 30351</text></g><g class="node" aria-label="graph-node698109" transform="translate(-270.57864168992535,-272.0324507017798)"><circle class="b-outline" cx="0" cy="0" r="32.5" fill="#4C8EDA" stroke="#2870c2" stroke-width="2px"/><text class="caption" text-anchor="middle" pointer-events="none" x="0" y="8" font-size="16px" fill="#FFFFFF" font-family="Helvetica Neue, Helvetica, Arial, sans-serif"> 30352</text></g><g class="node" aria-label="graph-node698111" transform="translate(-264.2348570325357,-370.3960426254982)"><circle class="b-outline" cx="0" cy="0" r="32.5" fill="#4C8EDA" stroke="#2870c2" stroke-width="2px"/><text class="caption" text-anchor="middle" pointer-events="none" x="0" y="8" font-size="16px" fill="#FFFFFF" font-family="Helvetica Neue, Helvetica, Arial, sans-serif"> 30354</text></g><g class="node" aria-label="graph-node44057" transform="translate(-343.0863329100214,133.97328919915338)"><circle class="b-outline" cx="0" cy="0" r="32.5" fill="#F16667" stroke="#eb2728" stroke-width="2px"/><text class="caption" text-anchor="middle" pointer-events="none" x="0" y="8" font-size="16px" fill="#FFFFFF" font-family="Helvetica Neue, Helvetica, Arial, sans-serif"> 3654</text></g><g class="node" aria-label="graph-node44058" transform="translate(-475.2672502152143,174.32873414877963)"><circle class="b-outline" cx="0" cy="0" r="32.5" fill="#4C8EDA" stroke="#2870c2" stroke-width="2px"/><text class="caption" text-anchor="middle" pointer-events="none" x="0" y="8" font-size="16px" fill="#FFFFFF" font-family="Helvetica Neue, Helvetica, Arial, sans-serif"> 3655</text></g><g class="node" aria-label="graph-node44060" transform="translate(-592.7914474708282,141.70237723670857)"><circle class="b-outline" cx="0" cy="0" r="32.5" fill="#4C8EDA" stroke="#2870c2" stroke-width="2px"/><text class="caption" text-anchor="middle" pointer-events="none" x="0" y="8" font-size="16px" fill="#FFFFFF" font-family="Helvetica Neue, Helvetica, Arial, sans-serif"> 3657</text></g><g class="node" aria-label="graph-node1108295" transform="translate(-111.86584946177948,-221.6915617946063)"><circle class="b-outline" cx="0" cy="0" r="40" fill="#C990C0" stroke="#b261a5" stroke-width="2px"/><text class="caption" text-anchor="middle" pointer-events="none" x="0" y="8" font-size="16px" fill="#FFFFFF" font-family="Helvetica Neue, Helvetica, Arial, sans-serif"> 45780</text></g><g class="node" aria-label="graph-node27094" transform="translate(43.3493745442551,-61.80026245694405)"><circle class="b-outline" cx="0" cy="0" r="32.5" fill="#F16667" stroke="#eb2728" stroke-width="2px"/><text class="caption" text-anchor="middle" pointer-events="none" x="0" y="8" font-size="16px" fill="#FFFFFF" font-family="Helvetica Neue, Helvetica, Arial, sans-serif"> 51944</text></g><g class="node" aria-label="graph-node27095" transform="translate(-72.00889249040578,-65.2545591186719)"><circle class="b-outline" cx="0" cy="0" r="32.5" fill="#4C8EDA" stroke="#2870c2" stroke-width="2px"/><text class="caption" text-anchor="middle" pointer-events="none" x="0" y="8" font-size="16px" fill="#FFFFFF" font-family="Helvetica Neue, Helvetica, Arial, sans-serif"> 51945</text></g><g class="node" aria-label="graph-node27097" transform="translate(-183.95981706588782,-50.72881647423114)"><circle class="b-outline" cx="0" cy="0" r="32.5" fill="#4C8EDA" stroke="#2870c2" stroke-width="2px"/><text class="caption" text-anchor="middle" pointer-events="none" x="0" y="8" font-size="16px" fill="#FFFFFF" font-family="Helvetica Neue, Helvetica, Arial, sans-serif"> 51947</text></g><g class="node" aria-label="graph-node403110" transform="translate(-101.93185193104716,57.110105050030285)"><circle class="b-outline" cx="0" cy="0" r="40" fill="#C990C0" stroke="#b261a5" stroke-width="2px"/><text class="caption" text-anchor="middle" pointer-events="none" x="0" y="8" font-size="16px" fill="#FFFFFF" font-family="Helvetica Neue, Helvetica, Arial, sans-serif"> 70876</text></g><g class="node" aria-label="graph-node559988" transform="translate(-3.6065097625616227,193.02440812683136)"><circle class="b-outline" cx="0" cy="0" r="32.5" fill="#F16667" stroke="#eb2728" stroke-width="2px"/><text class="caption" text-anchor="middle" pointer-events="none" x="0" y="8" font-size="16px" fill="#FFFFFF" font-family="Helvetica Neue, Helvetica, Arial, sans-serif"> 78150</text></g><g class="node" aria-label="graph-node559989" transform="translate(-202.89661061739895,189.66778366162114)"><circle class="b-outline" cx="0" cy="0" r="32.5" fill="#4C8EDA" stroke="#2870c2" stroke-width="2px"/><text class="caption" text-anchor="middle" pointer-events="none" x="0" y="8" font-size="16px" fill="#FFFFFF" font-family="Helvetica Neue, Helvetica, Arial, sans-serif"> 78151</text></g><g class="node" aria-label="graph-node559991" transform="translate(-103.09229201323357,189.91955872657417)"><circle class="b-outline" cx="0" cy="0" r="32.5" fill="#4C8EDA" stroke="#2870c2" stroke-width="2px"/><text class="caption" text-anchor="middle" pointer-events="none" x="0" y="8" font-size="16px" fill="#FFFFFF" font-family="Helvetica Neue, Helvetica, Arial, sans-serif"> 78153</text></g></g></svg>