<svg xmlns="http://www.w3.org/2000/svg" width="342.3258056640625" height="296.12933349609375" viewBox="-169.70352172851562 -91.34952545166016 342.3258056640625 296.12933349609375"><title>Neo4j Graph Visualization</title><desc>Created using Neo4j (http://www.neo4j.com/)</desc><g class="layer relationships"><g class="relationship" transform="translate(3.4763178988126144 85.39022204724638) rotate(396.63623888179364)"><path class="b-outline" fill="#F16667" stroke="none" d="M 32.5 0.5 L 59.50270442572352 0.5 L 59.50270442572352 -0.5 L 32.5 -0.5 Z M 92.47145442572352 0.5 L 119.47415885144704 0.5 L 119.47415885144704 3.5 L 126.47415885144704 0 L 119.47415885144704 -3.5 L 119.47415885144704 -0.5 L 92.47145442572352 -0.5 Z"/><text text-anchor="middle" pointer-events="none" font-size="8px" fill="#000000" x="75.98707942572352" y="3" font-family="Helvetica Neue, Helvetica, Arial, sans-serif">DECAY</text></g><g class="relationship" transform="translate(3.4763178988126144 85.39022204724638) rotate(336.06403275821503)"><path class="b-outline" fill="#F16667" stroke="none" d="M 32.5 0.5 L 60.43193807525982 0.5 L 60.43193807525982 -0.5 L 32.5 -0.5 Z M 93.40068807525982 0.5 L 121.33262615051964 0.5 L 121.33262615051964 3.5 L 128.33262615051964 0 L 121.33262615051964 -3.5 L 121.33262615051964 -0.5 L 93.40068807525982 -0.5 Z"/><text text-anchor="middle" pointer-events="none" font-size="8px" fill="#000000" x="76.91631307525982" y="3" font-family="Helvetica Neue, Helvetica, Arial, sans-serif">DECAY</text></g><g class="relationship" transform="translate(3.4763178988126144 85.39022204724638) rotate(287.2745024244047)"><path class="b-outline" fill="#F16667" stroke="none" d="M 32.5 0.5 L 61.12494113861969 0.5 L 61.12494113861969 -0.5 L 32.5 -0.5 Z M 94.09369113861969 0.5 L 122.71863227723938 0.5 L 122.71863227723938 3.5 L 129.71863227723938 0 L 122.71863227723938 -3.5 L 122.71863227723938 -0.5 L 94.09369113861969 -0.5 Z"/><text text-anchor="middle" pointer-events="none" font-size="8px" fill="#000000" x="77.60931613861969" y="3" font-family="Helvetica Neue, Helvetica, Arial, sans-serif">DECAY</text></g><g class="relationship" transform="translate(3.4763178988126144 85.39022204724638) rotate(245.68885011668516)"><path class="b-outline" fill="#F16667" stroke="none" d="M 32.5 0.5 L 60.9409812836511 0.5 L 60.9409812836511 -0.5 L 32.5 -0.5 Z M 93.9097312836511 0.5 L 122.3507125673022 0.5 L 122.3507125673022 3.5 L 129.3507125673022 0 L 122.3507125673022 -3.5 L 122.3507125673022 -0.5 L 93.9097312836511 -0.5 Z"/><text text-anchor="middle" pointer-events="none" font-size="8px" fill="#000000" x="77.4253562836511" y="3" transform="rotate(180 77.4253562836511 0)" font-family="Helvetica Neue, Helvetica, Arial, sans-serif">DECAY</text></g><g class="relationship" transform="translate(3.4763178988126144 85.39022204724638) rotate(199.92771165501824)"><path class="b-outline" fill="#F16667" stroke="none" d="M 32.5 0.5 L 60.44695429932378 0.5 L 60.44695429932378 -0.5 L 32.5 -0.5 Z M 93.41570429932378 0.5 L 121.36265859864756 0.5 L 121.36265859864756 3.5 L 128.36265859864756 0 L 121.36265859864756 -3.5 L 121.36265859864756 -0.5 L 93.41570429932378 -0.5 Z"/><text text-anchor="middle" pointer-events="none" font-size="8px" fill="#000000" x="76.93132929932378" y="3" transform="rotate(180 76.93132929932378 0)" font-family="Helvetica Neue, Helvetica, Arial, sans-serif">DECAY</text></g><g class="relationship" transform="translate(3.4763178988126144 85.39022204724638) rotate(504.3054414817316)"><path class="b-outline" fill="#F16667" stroke="none" d="M 32.5 0.5 L 59.7076576520665 0.5 L 59.7076576520665 -0.5 L 32.5 -0.5 Z M 92.6764076520665 0.5 L 119.884065304133 0.5 L 119.884065304133 3.5 L 126.884065304133 0 L 119.884065304133 -3.5 L 119.884065304133 -0.5 L 92.6764076520665 -0.5 Z"/><text text-anchor="middle" pointer-events="none" font-size="8px" fill="#000000" x="76.1920326520665" y="3" transform="rotate(180 76.1920326520665 0)" font-family="Helvetica Neue, Helvetica, Arial, sans-serif">DECAY</text></g></g><g class="layer nodes"><g class="node" aria-label="graph-node16573" transform="translate(3.4763178988126144,85.39022204724638)"><circle class="b-outline" cx="0" cy="0" r="32.5" fill="#C990C0" stroke="#b261a5" stroke-width="2px"/><text class="caption" text-anchor="middle" pointer-events="none" x="0" y="8" font-size="16px" fill="#FFFFFF" font-family="Helvetica Neue, Helvetica, Arial, sans-serif"> 1832</text></g><g class="node" aria-label="graph-node44057" transform="translate(125.02527368779113,175.77977977579351)"><circle class="b-outline" cx="0" cy="0" r="25" fill="#F16667" stroke="#eb2728" stroke-width="2px"/><text class="caption" text-anchor="middle" pointer-events="none" x="0" y="8" font-size="16px" fill="#FFFFFF" font-family="Helvetica Neue, Helvetica, Arial, sans-serif"> 3654</text></g><g class="node" aria-label="graph-node0" transform="translate(143.622253680584,23.180810170371743)"><circle class="b-outline" cx="0" cy="0" r="25" fill="#F16667" stroke="#eb2728" stroke-width="2px"/><text class="caption" text-anchor="middle" pointer-events="none" x="0" y="8" font-size="16px" fill="#FFFFFF" font-family="Helvetica Neue, Helvetica, Arial, sans-serif"> 1</text></g><g class="node" aria-label="graph-node44058" transform="translate(49.42000959536762,-62.349523339807526)"><circle class="b-outline" cx="0" cy="0" r="25" fill="#4C8EDA" stroke="#2870c2" stroke-width="2px"/><text class="caption" text-anchor="middle" pointer-events="none" x="0" y="8" font-size="16px" fill="#FFFFFF" font-family="Helvetica Neue, Helvetica, Arial, sans-serif"> 3655</text></g><g class="node" aria-label="graph-node1" transform="translate(-60.06859118667548,-55.273159823626436)"><circle class="b-outline" cx="0" cy="0" r="25" fill="#4C8EDA" stroke="#2870c2" stroke-width="2px"/><text class="caption" text-anchor="middle" pointer-events="none" x="0" y="8" font-size="16px" fill="#FFFFFF" font-family="Helvetica Neue, Helvetica, Arial, sans-serif"> 2</text></g><g class="node" aria-label="graph-node44060" transform="translate(-140.70350447864104,33.11896922457872)"><circle class="b-outline" cx="0" cy="0" r="25" fill="#4C8EDA" stroke="#2870c2" stroke-width="2px"/><text class="caption" text-anchor="middle" pointer-events="none" x="0" y="8" font-size="16px" fill="#FFFFFF" font-family="Helvetica Neue, Helvetica, Arial, sans-serif"> 3657</text></g><g class="node" aria-label="graph-node2" transform="translate(-119.87464638202685,174.0091190404792)"><circle class="b-outline" cx="0" cy="0" r="25" fill="#4C8EDA" stroke="#2870c2" stroke-width="2px"/><text class="caption" text-anchor="middle" pointer-events="none" x="0" y="8" font-size="16px" fill="#FFFFFF" font-family="Helvetica Neue, Helvetica, Arial, sans-serif"> 3</text></g></g></svg>