<svg xmlns="http://www.w3.org/2000/svg" width="1140.8021240234375" height="601.0809936523438" viewBox="-787.6381225585938 -206.91722106933594 1140.8021240234375 601.0809936523438"><title>Neo4j Graph Visualization</title><desc>Created using Neo4j (http://www.neo4j.com/)</desc><g class="layer relationships"><g class="relationship" transform="translate(-223.866218689474 -162.91721421495564) rotate(514.5823631048197)"><path class="b-outline" fill="#F16667" stroke="none" d="M 40 0.5 L 275.6555856181173 0.5 L 275.6555856181173 -0.5 L 40 -0.5 Z M 308.6243356181173 0.5 L 544.2799212362346 0.5 L 544.2799212362346 3.5 L 551.2799212362346 0 L 544.2799212362346 -3.5 L 544.2799212362346 -0.5 L 308.6243356181173 -0.5 Z"/><text text-anchor="middle" pointer-events="none" font-size="8px" fill="#000000" x="292.1399606181173" y="3" transform="rotate(180 292.1399606181173 0)" font-family="Helvetica Neue, Helvetica, Arial, sans-serif">DECAY</text></g><g class="relationship" transform="translate(-218.88248194879975 350.16377234299523) rotate(206.2530753126399)"><path class="b-outline" fill="#F16667" stroke="none" d="M 40 0.5 L 280.5021089114513 0.5 L 280.5021089114513 -0.5 L 40 -0.5 Z M 313.4708589114513 0.5 L 553.9729678229025 0.5 L 553.9729678229025 3.5 L 560.9729678229025 0 L 553.9729678229025 -3.5 L 553.9729678229025 -0.5 L 313.4708589114513 -0.5 Z"/><text text-anchor="middle" pointer-events="none" font-size="8px" fill="#000000" x="296.9864839114513" y="3" transform="rotate(180 296.9864839114513 0)" font-family="Helvetica Neue, Helvetica, Arial, sans-serif">DECAY</text></g><g class="relationship" transform="translate(-223.866218689474 -162.91721421495564) rotate(503.8164133237133)"><path class="b-outline" fill="#F16667" stroke="none" d="M 40 0.5 L 195.9996196583755 0.5 L 195.9996196583755 -0.5 L 40 -0.5 Z M 228.9683696583755 0.5 L 384.967989316751 0.5 L 384.967989316751 3.5 L 391.967989316751 0 L 384.967989316751 -3.5 L 384.967989316751 -0.5 L 228.9683696583755 -0.5 Z"/><text text-anchor="middle" pointer-events="none" font-size="8px" fill="#000000" x="212.4839946583755" y="3" transform="rotate(180 212.4839946583755 0)" font-family="Helvetica Neue, Helvetica, Arial, sans-serif">DECAY</text></g><g class="relationship" transform="translate(-218.88248194879975 350.16377234299523) rotate(217.0590750415614)"><path class="b-outline" fill="#F16667" stroke="none" d="M 40 0.5 L 201.54633160996497 0.5 L 201.54633160996497 -0.5 L 40 -0.5 Z M 234.51508160996497 0.5 L 396.06141321992993 0.5 L 396.06141321992993 3.5 L 403.06141321992993 0 L 396.06141321992993 -3.5 L 396.06141321992993 -0.5 L 234.51508160996497 -0.5 Z"/><text text-anchor="middle" pointer-events="none" font-size="8px" fill="#000000" x="218.03070660996497" y="3" transform="rotate(180 218.03070660996497 0)" font-family="Helvetica Neue, Helvetica, Arial, sans-serif">DECAY</text></g><g class="relationship" transform="translate(-223.866218689474 -162.91721421495564) rotate(483.73699746118433)"><path class="b-outline" fill="#F16667" stroke="none" d="M 40 0.5 L 138.47564616830033 0.5 L 138.47564616830033 -0.5 L 40 -0.5 Z M 171.44439616830033 0.5 L 269.92004233660066 0.5 L 269.92004233660066 3.5 L 276.92004233660066 0 L 269.92004233660066 -3.5 L 269.92004233660066 -0.5 L 171.44439616830033 -0.5 Z"/><text text-anchor="middle" pointer-events="none" font-size="8px" fill="#000000" x="154.96002116830033" y="3" transform="rotate(180 154.96002116830033 0)" font-family="Helvetica Neue, Helvetica, Arial, sans-serif">DECAY</text></g><g class="relationship" transform="translate(-218.88248194879975 350.16377234299523) rotate(236.61468035311668)"><path class="b-outline" fill="#F16667" stroke="none" d="M 40 0.5 L 144.40728710730215 0.5 L 144.40728710730215 -0.5 L 40 -0.5 Z M 177.37603710730215 0.5 L 281.7833242146043 0.5 L 281.7833242146043 3.5 L 288.7833242146043 0 L 281.7833242146043 -3.5 L 281.7833242146043 -0.5 L 177.37603710730215 -0.5 Z"/><text text-anchor="middle" pointer-events="none" font-size="8px" fill="#000000" x="160.89166210730215" y="3" transform="rotate(180 160.89166210730215 0)" font-family="Helvetica Neue, Helvetica, Arial, sans-serif">DECAY</text></g><g class="relationship" transform="translate(-223.866218689474 -162.91721421495564) rotate(460.8936118157783)"><path class="b-outline" fill="#F16667" stroke="none" d="M 40 0.5 L 114.30106708431332 0.5 L 114.30106708431332 -0.5 L 40 -0.5 Z M 147.26981708431333 0.5 L 221.57088416862663 0.5 L 221.57088416862663 3.5 L 228.57088416862663 0 L 221.57088416862663 -3.5 L 221.57088416862663 -0.5 L 147.26981708431333 -0.5 Z"/><text text-anchor="middle" pointer-events="none" font-size="8px" fill="#000000" x="130.78544208431333" y="3" transform="rotate(180 130.78544208431333 0)" font-family="Helvetica Neue, Helvetica, Arial, sans-serif">DECAY</text></g><g class="relationship" transform="translate(-218.88248194879975 350.16377234299523) rotate(258.671465579077)"><path class="b-outline" fill="#F16667" stroke="none" d="M 40 0.5 L 122.17903011226548 0.5 L 122.17903011226548 -0.5 L 40 -0.5 Z M 155.14778011226548 0.5 L 237.32681022453096 0.5 L 237.32681022453096 3.5 L 244.32681022453096 0 L 237.32681022453096 -3.5 L 237.32681022453096 -0.5 L 155.14778011226548 -0.5 Z"/><text text-anchor="middle" pointer-events="none" font-size="8px" fill="#000000" x="138.66340511226548" y="3" transform="rotate(180 138.66340511226548 0)" font-family="Helvetica Neue, Helvetica, Arial, sans-serif">DECAY</text></g><g class="relationship" transform="translate(-223.866218689474 -162.91721421495564) rotate(432.14827712499937)"><path class="b-outline" fill="#F16667" stroke="none" d="M 40 0.5 L 118.77603206838097 0.5 L 118.77603206838097 -0.5 L 40 -0.5 Z M 151.74478206838097 0.5 L 230.52081413676194 0.5 L 230.52081413676194 3.5 L 237.52081413676194 0 L 230.52081413676194 -3.5 L 230.52081413676194 -0.5 L 151.74478206838097 -0.5 Z"/><text text-anchor="middle" pointer-events="none" font-size="8px" fill="#000000" x="135.26040706838097" y="3" font-family="Helvetica Neue, Helvetica, Arial, sans-serif">DECAY</text></g><g class="relationship" transform="translate(-218.88248194879975 350.16377234299523) rotate(286.0044128770108)"><path class="b-outline" fill="#F16667" stroke="none" d="M 40 0.5 L 124.42192507430624 0.5 L 124.42192507430624 -0.5 L 40 -0.5 Z M 157.39067507430624 0.5 L 241.8126001486125 0.5 L 241.8126001486125 3.5 L 248.8126001486125 0 L 241.8126001486125 -3.5 L 241.8126001486125 -0.5 L 157.39067507430624 -0.5 Z"/><text text-anchor="middle" pointer-events="none" font-size="8px" fill="#000000" x="140.90630007430624" y="3" font-family="Helvetica Neue, Helvetica, Arial, sans-serif">DECAY</text></g><g class="relationship" transform="translate(-223.866218689474 -162.91721421495564) rotate(412.2573671618226)"><path class="b-outline" fill="#F16667" stroke="none" d="M 40 0.5 L 145.47214665040386 0.5 L 145.47214665040386 -0.5 L 40 -0.5 Z M 178.44089665040386 0.5 L 283.9130433008077 0.5 L 283.9130433008077 3.5 L 290.9130433008077 0 L 283.9130433008077 -3.5 L 283.9130433008077 -0.5 L 178.44089665040386 -0.5 Z"/><text text-anchor="middle" pointer-events="none" font-size="8px" fill="#000000" x="161.95652165040386" y="3" font-family="Helvetica Neue, Helvetica, Arial, sans-serif">DECAY</text></g><g class="relationship" transform="translate(-218.88248194879975 350.16377234299523) rotate(305.5871819538186)"><path class="b-outline" fill="#F16667" stroke="none" d="M 40 0.5 L 149.38044552175685 0.5 L 149.38044552175685 -0.5 L 40 -0.5 Z M 182.34919552175685 0.5 L 291.7296410435137 0.5 L 291.7296410435137 3.5 L 298.7296410435137 0 L 291.7296410435137 -3.5 L 291.7296410435137 -0.5 L 182.34919552175685 -0.5 Z"/><text text-anchor="middle" pointer-events="none" font-size="8px" fill="#000000" x="165.86482052175685" y="3" font-family="Helvetica Neue, Helvetica, Arial, sans-serif">DECAY</text></g><g class="relationship" transform="translate(-223.866218689474 -162.91721421495564) rotate(395.37794545330917)"><path class="b-outline" fill="#F16667" stroke="none" d="M 40 0.5 L 191.63201113008483 0.5 L 191.63201113008483 -0.5 L 40 -0.5 Z M 224.60076113008483 0.5 L 376.23277226016967 0.5 L 376.23277226016967 3.5 L 383.23277226016967 0 L 376.23277226016967 -3.5 L 376.23277226016967 -0.5 L 224.60076113008483 -0.5 Z"/><text text-anchor="middle" pointer-events="none" font-size="8px" fill="#000000" x="208.11638613008483" y="3" font-family="Helvetica Neue, Helvetica, Arial, sans-serif">DECAY</text></g><g class="relationship" transform="translate(-218.88248194879975 350.16377234299523) rotate(321.75724560404575)"><path class="b-outline" fill="#F16667" stroke="none" d="M 40 0.5 L 196.53044464884618 0.5 L 196.53044464884618 -0.5 L 40 -0.5 Z M 229.49919464884618 0.5 L 386.02963929769237 0.5 L 386.02963929769237 3.5 L 393.02963929769237 0 L 386.02963929769237 -3.5 L 386.02963929769237 -0.5 L 229.49919464884618 -0.5 Z"/><text text-anchor="middle" pointer-events="none" font-size="8px" fill="#000000" x="213.01481964884618" y="3" font-family="Helvetica Neue, Helvetica, Arial, sans-serif">DECAY</text></g><g class="relationship" transform="translate(-223.866218689474 -162.91721421495564) rotate(384.84763564752086)"><path class="b-outline" fill="#F16667" stroke="none" d="M 40 0.5 L 273.7193509180263 0.5 L 273.7193509180263 -0.5 L 40 -0.5 Z M 306.6881009180263 0.5 L 540.4074518360526 0.5 L 540.4074518360526 3.5 L 547.4074518360526 0 L 540.4074518360526 -3.5 L 540.4074518360526 -0.5 L 306.6881009180263 -0.5 Z"/><text text-anchor="middle" pointer-events="none" font-size="8px" fill="#000000" x="290.2037259180263" y="3" font-family="Helvetica Neue, Helvetica, Arial, sans-serif">DECAY</text></g><g class="relationship" transform="translate(-218.88248194879975 350.16377234299523) rotate(333.2421164247319)"><path class="b-outline" fill="#F16667" stroke="none" d="M 40 0.5 L 275.70183344702326 0.5 L 275.70183344702326 -0.5 L 40 -0.5 Z M 308.67058344702326 0.5 L 544.3724168940465 0.5 L 544.3724168940465 3.5 L 551.3724168940465 0 L 544.3724168940465 -3.5 L 544.3724168940465 -0.5 L 308.67058344702326 -0.5 Z"/><text text-anchor="middle" pointer-events="none" font-size="8px" fill="#000000" x="292.18620844702326" y="3" font-family="Helvetica Neue, Helvetica, Arial, sans-serif">DECAY</text></g></g><g class="layer nodes"><g class="node" aria-label="graph-node33" transform="translate(-223.866218689474,-162.91721421495564)"><circle class="b-outline" cx="0" cy="0" r="40" fill="#C990C0" stroke="#b261a5" stroke-width="2px"/><text class="caption" text-anchor="middle" pointer-events="none" x="0" y="8" font-size="16px" fill="#FFFFFF" font-family="Helvetica Neue, Helvetica, Arial, sans-serif"> 34</text></g><g class="node" aria-label="graph-node21" transform="translate(-218.88248194879975,350.16377234299523)"><circle class="b-outline" cx="0" cy="0" r="40" fill="#C990C0" stroke="#b261a5" stroke-width="2px"/><text class="caption" text-anchor="middle" pointer-events="none" x="0" y="8" font-size="16px" fill="#FFFFFF" font-family="Helvetica Neue, Helvetica, Arial, sans-serif"> 22</text></g><g class="node" aria-label="graph-node150" transform="translate(-751.1381200780023,87.6488218807419)"><circle class="b-outline" cx="0" cy="0" r="32.5" fill="#F16667" stroke="#eb2728" stroke-width="2px"/><text class="caption" text-anchor="middle" pointer-events="none" x="0" y="8" font-size="16px" fill="#FFFFFF" font-family="Helvetica Neue, Helvetica, Arial, sans-serif"> 151</text></g><g class="node" aria-label="graph-node540" transform="translate(-566.4668410017692,87.6778526675221)"><circle class="b-outline" cx="0" cy="0" r="32.5" fill="#F16667" stroke="#eb2728" stroke-width="2px"/><text class="caption" text-anchor="middle" pointer-events="none" x="0" y="8" font-size="16px" fill="#FFFFFF" font-family="Helvetica Neue, Helvetica, Arial, sans-serif"> 541</text></g><g class="node" aria-label="graph-node151" transform="translate(-391.54703295547773,88.15818579791838)"><circle class="b-outline" cx="0" cy="0" r="25" fill="#4C8EDA" stroke="#2870c2" stroke-width="2px"/><text class="caption" text-anchor="middle" pointer-events="none" x="0" y="8" font-size="16px" fill="#FFFFFF" font-family="Helvetica Neue, Helvetica, Arial, sans-serif"> 152</text></g><g class="node" aria-label="graph-node541" transform="translate(-271.7875552760632,86.08426931037178)"><circle class="b-outline" cx="0" cy="0" r="25" fill="#4C8EDA" stroke="#2870c2" stroke-width="2px"/><text class="caption" text-anchor="middle" pointer-events="none" x="0" y="8" font-size="16px" fill="#FFFFFF" font-family="Helvetica Neue, Helvetica, Arial, sans-serif"> 542</text></g><g class="node" aria-label="graph-node152" transform="translate(-143.38922918755466,86.96402160665679)"><circle class="b-outline" cx="0" cy="0" r="25" fill="#4C8EDA" stroke="#2870c2" stroke-width="2px"/><text class="caption" text-anchor="middle" pointer-events="none" x="0" y="8" font-size="16px" fill="#FFFFFF" font-family="Helvetica Neue, Helvetica, Arial, sans-serif"> 153</text></g><g class="node" aria-label="graph-node542" transform="translate(-30.490914387347374,86.89680183225883)"><circle class="b-outline" cx="0" cy="0" r="25" fill="#4C8EDA" stroke="#2870c2" stroke-width="2px"/><text class="caption" text-anchor="middle" pointer-events="none" x="0" y="8" font-size="16px" fill="#FFFFFF" font-family="Helvetica Neue, Helvetica, Arial, sans-serif"> 543</text></g><g class="node" aria-label="graph-node153" transform="translate(121.21692471023437,82.12074948945676)"><circle class="b-outline" cx="0" cy="0" r="40" fill="#C990C0" stroke="#b261a5" stroke-width="2px"/><text class="caption" text-anchor="middle" pointer-events="none" x="0" y="8" font-size="16px" fill="#FFFFFF" font-family="Helvetica Neue, Helvetica, Arial, sans-serif"> 154</text></g><g class="node" aria-label="graph-node543" transform="translate(309.16400476763766,83.91531069573361)"><circle class="b-outline" cx="0" cy="0" r="40" fill="#C990C0" stroke="#b261a5" stroke-width="2px"/><text class="caption" text-anchor="middle" pointer-events="none" x="0" y="8" font-size="16px" fill="#FFFFFF" font-family="Helvetica Neue, Helvetica, Arial, sans-serif"> 544</text></g></g></svg>