<svg xmlns="http://www.w3.org/2000/svg" width="392.10650634765625" height="305.7425537109375" viewBox="-187.90013122558594 -79.3848876953125 392.10650634765625 305.7425537109375"><title>Neo4j Graph Visualization</title><desc>Created using Neo4j (http://www.neo4j.com/)</desc><g class="layer relationships"><g class="relationship" transform="translate(15.210676645267975 108.46361781891994) rotate(382.20023737521194)"><path class="b-outline" fill="#F16667" stroke="none" d="M 40 0.5 L 66.11835211314497 0.5 L 66.11835211314497 -0.5 L 40 -0.5 Z M 99.08710211314497 0.5 L 125.20545422628993 0.5 L 125.20545422628993 3.5 L 132.20545422628993 0 L 125.20545422628993 -3.5 L 125.20545422628993 -0.5 L 99.08710211314497 -0.5 Z"/><text text-anchor="middle" pointer-events="none" font-size="8px" fill="#000000" x="82.60272711314497" y="3" font-family="Helvetica Neue, Helvetica, Arial, sans-serif">DECAY</text></g><g class="relationship" transform="translate(15.210676645267975 108.46361781891994) rotate(324.9263547008807)"><path class="b-outline" fill="#F16667" stroke="none" d="M 40 0.5 L 67.6866145094616 0.5 L 67.6866145094616 -0.5 L 40 -0.5 Z M 100.6553645094616 0.5 L 128.3419790189232 0.5 L 128.3419790189232 3.5 L 135.3419790189232 0 L 128.3419790189232 -3.5 L 128.3419790189232 -0.5 L 100.6553645094616 -0.5 Z"/><text text-anchor="middle" pointer-events="none" font-size="8px" fill="#000000" x="84.1709895094616" y="3" font-family="Helvetica Neue, Helvetica, Arial, sans-serif">DECAY</text></g><g class="relationship" transform="translate(15.210676645267975 108.46361781891994) rotate(281.44052642950845)"><path class="b-outline" fill="#F16667" stroke="none" d="M 40 0.5 L 68.54993918043505 0.5 L 68.54993918043505 -0.5 L 40 -0.5 Z M 101.51868918043505 0.5 L 130.0686283608701 0.5 L 130.0686283608701 3.5 L 137.0686283608701 0 L 130.0686283608701 -3.5 L 130.0686283608701 -0.5 L 101.51868918043505 -0.5 Z"/><text text-anchor="middle" pointer-events="none" font-size="8px" fill="#000000" x="85.03431418043505" y="3" font-family="Helvetica Neue, Helvetica, Arial, sans-serif">DECAY</text></g><g class="relationship" transform="translate(15.210676645267975 108.46361781891994) rotate(244.69954194732645)"><path class="b-outline" fill="#F16667" stroke="none" d="M 40 0.5 L 68.36646612812433 0.5 L 68.36646612812433 -0.5 L 40 -0.5 Z M 101.33521612812433 0.5 L 129.70168225624866 0.5 L 129.70168225624866 3.5 L 136.70168225624866 0 L 129.70168225624866 -3.5 L 129.70168225624866 -0.5 L 101.33521612812433 -0.5 Z"/><text text-anchor="middle" pointer-events="none" font-size="8px" fill="#000000" x="84.85084112812433" y="3" transform="rotate(180 84.85084112812433 0)" font-family="Helvetica Neue, Helvetica, Arial, sans-serif">DECAY</text></g><g class="relationship" transform="translate(15.210676645267975 108.46361781891994) rotate(205.1664591485025)"><path class="b-outline" fill="#F16667" stroke="none" d="M 40 0.5 L 67.9147558655332 0.5 L 67.9147558655332 -0.5 L 40 -0.5 Z M 100.8835058655332 0.5 L 128.7982617310664 0.5 L 128.7982617310664 3.5 L 135.7982617310664 0 L 128.7982617310664 -3.5 L 128.7982617310664 -0.5 L 100.8835058655332 -0.5 Z"/><text text-anchor="middle" pointer-events="none" font-size="8px" fill="#000000" x="84.3991308655332" y="3" transform="rotate(180 84.3991308655332 0)" font-family="Helvetica Neue, Helvetica, Arial, sans-serif">DECAY</text></g><g class="relationship" transform="translate(15.210676645267975 108.46361781891994) rotate(514.7132044293438)"><path class="b-outline" fill="#F16667" stroke="none" d="M 40 0.5 L 66.51232749380489 0.5 L 66.51232749380489 -0.5 L 40 -0.5 Z M 99.48107749380489 0.5 L 125.99340498760978 0.5 L 125.99340498760978 3.5 L 132.99340498760978 0 L 125.99340498760978 -3.5 L 125.99340498760978 -0.5 L 99.48107749380489 -0.5 Z"/><text text-anchor="middle" pointer-events="none" font-size="8px" fill="#000000" x="82.99670249380489" y="3" transform="rotate(180 82.99670249380489 0)" font-family="Helvetica Neue, Helvetica, Arial, sans-serif">DECAY</text></g></g><g class="layer nodes"><g class="node" aria-label="graph-node33" transform="translate(15.210676645267975,108.46361781891994)"><circle class="b-outline" cx="0" cy="0" r="40" fill="#C990C0" stroke="#b261a5" stroke-width="2px"/><text class="caption" text-anchor="middle" pointer-events="none" x="0" y="8" font-size="16px" fill="#FFFFFF" font-family="Helvetica Neue, Helvetica, Arial, sans-serif"> 34</text></g><g class="node" aria-label="graph-node150" transform="translate(167.70635404216392,170.6966880239992)"><circle class="b-outline" cx="0" cy="0" r="32.5" fill="#F16667" stroke="#eb2728" stroke-width="2px"/><text class="caption" text-anchor="middle" pointer-events="none" x="0" y="8" font-size="16px" fill="#FFFFFF" font-family="Helvetica Neue, Helvetica, Arial, sans-serif"> 151</text></g><g class="node" aria-label="graph-node540" transform="translate(152.5749221451671,12.016772462360453)"><circle class="b-outline" cx="0" cy="0" r="32.5" fill="#F16667" stroke="#eb2728" stroke-width="2px"/><text class="caption" text-anchor="middle" pointer-events="none" x="0" y="8" font-size="16px" fill="#FFFFFF" font-family="Helvetica Neue, Helvetica, Arial, sans-serif"> 541</text></g><g class="node" aria-label="graph-node151" transform="translate(47.35709538482726,-50.38488881867719)"><circle class="b-outline" cx="0" cy="0" r="25" fill="#4C8EDA" stroke="#2870c2" stroke-width="2px"/><text class="caption" text-anchor="middle" pointer-events="none" x="0" y="8" font-size="16px" fill="#FFFFFF" font-family="Helvetica Neue, Helvetica, Arial, sans-serif"> 152</text></g><g class="node" aria-label="graph-node541" transform="translate(-53.894977520959145,-37.72749889737927)"><circle class="b-outline" cx="0" cy="0" r="25" fill="#4C8EDA" stroke="#2870c2" stroke-width="2px"/><text class="caption" text-anchor="middle" pointer-events="none" x="0" y="8" font-size="16px" fill="#FFFFFF" font-family="Helvetica Neue, Helvetica, Arial, sans-serif"> 542</text></g><g class="node" aria-label="graph-node152" transform="translate(-143.9001368869815,33.705488864469366)"><circle class="b-outline" cx="0" cy="0" r="40" fill="#C990C0" stroke="#b261a5" stroke-width="2px"/><text class="caption" text-anchor="middle" pointer-events="none" x="0" y="8" font-size="16px" fill="#FFFFFF" font-family="Helvetica Neue, Helvetica, Arial, sans-serif"> 153</text></g><g class="node" aria-label="graph-node542" transform="translate(-141.2066758426574,182.35766365398894)"><circle class="b-outline" cx="0" cy="0" r="40" fill="#C990C0" stroke="#b261a5" stroke-width="2px"/><text class="caption" text-anchor="middle" pointer-events="none" x="0" y="8" font-size="16px" fill="#FFFFFF" font-family="Helvetica Neue, Helvetica, Arial, sans-serif"> 543</text></g></g></svg>