<svg xmlns="http://www.w3.org/2000/svg" width="683.7254638671875" height="265.5326232910156" viewBox="-464.88336181640625 -58.606990814208984 683.7254638671875 265.5326232910156"><title>Neo4j Graph Visualization</title><desc>Created using Neo4j (http://www.neo4j.com/)</desc><g class="layer relationships"><g class="relationship" transform="translate(-120.20440131029652 162.92559997988764) rotate(180.5136684815841)"><path class="b-outline" fill="#F16667" stroke="none" d="M 40 0.5 L 137.8612788929198 0.5 L 137.8612788929198 -0.5 L 40 -0.5 Z M 170.8300288929198 0.5 L 268.6913077858396 0.5 L 268.6913077858396 3.5 L 275.6913077858396 0 L 268.6913077858396 -3.5 L 268.6913077858396 -0.5 L 170.8300288929198 -0.5 Z"/><text text-anchor="middle" pointer-events="none" font-size="8px" fill="#000000" x="154.3456538929198" y="3" transform="rotate(180 154.3456538929198 0)" font-family="Helvetica Neue, Helvetica, Arial, sans-serif">DECAY</text></g><g class="relationship" transform="translate(-120.20440131029652 162.92559997988764) rotate(202.55126974414844)"><path class="b-outline" fill="#F16667" stroke="none" d="M 40 0.5 L 126.50375135582269 0.5 L 126.50375135582269 -0.5 L 40 -0.5 Z M 159.4725013558227 0.5 L 245.97625271164537 0.5 L 245.97625271164537 3.5 L 252.97625271164537 0 L 245.97625271164537 -3.5 L 245.97625271164537 -0.5 L 159.4725013558227 -0.5 Z"/><text text-anchor="middle" pointer-events="none" font-size="8px" fill="#000000" x="142.9881263558227" y="3" transform="rotate(180 142.9881263558227 0)" font-family="Helvetica Neue, Helvetica, Arial, sans-serif">DECAY</text></g><g class="relationship" transform="translate(-120.20440131029652 162.92559997988764) rotate(246.36270450246786)"><path class="b-outline" fill="#F16667" stroke="none" d="M 40 0.5 L 90.97146348232492 0.5 L 90.97146348232492 -0.5 L 40 -0.5 Z M 123.94021348232492 0.5 L 174.91167696464984 0.5 L 174.91167696464984 3.5 L 181.91167696464984 0 L 174.91167696464984 -3.5 L 174.91167696464984 -0.5 L 123.94021348232492 -0.5 Z"/><text text-anchor="middle" pointer-events="none" font-size="8px" fill="#000000" x="107.45583848232492" y="3" transform="rotate(180 107.45583848232492 0)" font-family="Helvetica Neue, Helvetica, Arial, sans-serif">DECAY</text></g><g class="relationship" transform="translate(-120.20440131029652 162.92559997988764) rotate(290.23918485171095)"><path class="b-outline" fill="#F16667" stroke="none" d="M 40 0.5 L 90.11686445906909 0.5 L 90.11686445906909 -0.5 L 40 -0.5 Z M 123.08561445906909 0.5 L 173.20247891813818 0.5 L 173.20247891813818 3.5 L 180.20247891813818 0 L 173.20247891813818 -3.5 L 173.20247891813818 -0.5 L 123.08561445906909 -0.5 Z"/><text text-anchor="middle" pointer-events="none" font-size="8px" fill="#000000" x="106.60123945906909" y="3" font-family="Helvetica Neue, Helvetica, Arial, sans-serif">DECAY</text></g><g class="relationship" transform="translate(-120.20440131029652 162.92559997988764) rotate(336.6155735589414)"><path class="b-outline" fill="#F16667" stroke="none" d="M 40 0.5 L 132.02525090409443 0.5 L 132.02525090409443 -0.5 L 40 -0.5 Z M 164.99400090409443 0.5 L 257.01925180818887 0.5 L 257.01925180818887 3.5 L 264.01925180818887 0 L 257.01925180818887 -3.5 L 257.01925180818887 -0.5 L 164.99400090409443 -0.5 Z"/><text text-anchor="middle" pointer-events="none" font-size="8px" fill="#000000" x="148.50962590409443" y="3" font-family="Helvetica Neue, Helvetica, Arial, sans-serif">DECAY</text></g><g class="relationship" transform="translate(-120.20440131029652 162.92559997988764) rotate(359.5686997273083)"><path class="b-outline" fill="#F16667" stroke="none" d="M 40 0.5 L 142.5432638126507 0.5 L 142.5432638126507 -0.5 L 40 -0.5 Z M 175.5120138126507 0.5 L 278.0552776253014 0.5 L 278.0552776253014 3.5 L 285.0552776253014 0 L 278.0552776253014 -3.5 L 278.0552776253014 -0.5 L 175.5120138126507 -0.5 Z"/><text text-anchor="middle" pointer-events="none" font-size="8px" fill="#000000" x="159.0276388126507" y="3" font-family="Helvetica Neue, Helvetica, Arial, sans-serif">DECAY</text></g></g><g class="layer nodes"><g class="node" aria-label="graph-node33" transform="translate(-120.20440131029652,162.92559997988764)"><circle class="b-outline" cx="0" cy="0" r="40" fill="#C990C0" stroke="#b261a5" stroke-width="2px"/><text class="caption" text-anchor="middle" pointer-events="none" x="0" y="8" font-size="16px" fill="#FFFFFF" font-family="Helvetica Neue, Helvetica, Arial, sans-serif"> 34</text></g><g class="node" aria-label="graph-node150" transform="translate(-428.383323752712,160.16263834826495)"><circle class="b-outline" cx="0" cy="0" r="32.5" fill="#F16667" stroke="#eb2728" stroke-width="2px"/><text class="caption" text-anchor="middle" pointer-events="none" x="0" y="8" font-size="16px" fill="#FFFFFF" font-family="Helvetica Neue, Helvetica, Arial, sans-serif"> 151</text></g><g class="node" aria-label="graph-node540" transform="translate(-383.8522055617075,53.44260506427116)"><circle class="b-outline" cx="0" cy="0" r="32.5" fill="#F16667" stroke="#eb2728" stroke-width="2px"/><text class="caption" text-anchor="middle" pointer-events="none" x="0" y="8" font-size="16px" fill="#FFFFFF" font-family="Helvetica Neue, Helvetica, Arial, sans-serif"> 541</text></g><g class="node" aria-label="graph-node151" transform="translate(-203.1646936340075,-26.62658798397638)"><circle class="b-outline" cx="0" cy="0" r="25" fill="#4C8EDA" stroke="#2870c2" stroke-width="2px"/><text class="caption" text-anchor="middle" pointer-events="none" x="0" y="8" font-size="16px" fill="#FFFFFF" font-family="Helvetica Neue, Helvetica, Arial, sans-serif"> 152</text></g><g class="node" aria-label="graph-node541" transform="translate(-49.21666437887418,-29.60699092228697)"><circle class="b-outline" cx="0" cy="0" r="25" fill="#4C8EDA" stroke="#2870c2" stroke-width="2px"/><text class="caption" text-anchor="middle" pointer-events="none" x="0" y="8" font-size="16px" fill="#FFFFFF" font-family="Helvetica Neue, Helvetica, Arial, sans-serif"> 542</text></g><g class="node" aria-label="graph-node152" transform="translate(145.07554340804415,48.21431524294741)"><circle class="b-outline" cx="0" cy="0" r="25" fill="#4C8EDA" stroke="#2870c2" stroke-width="2px"/><text class="caption" text-anchor="middle" pointer-events="none" x="0" y="8" font-size="16px" fill="#FFFFFF" font-family="Helvetica Neue, Helvetica, Arial, sans-serif"> 153</text></g><g class="node" aria-label="graph-node542" transform="translate(189.8420917293398,160.59164686864702)"><circle class="b-outline" cx="0" cy="0" r="25" fill="#4C8EDA" stroke="#2870c2" stroke-width="2px"/><text class="caption" text-anchor="middle" pointer-events="none" x="0" y="8" font-size="16px" fill="#FFFFFF" font-family="Helvetica Neue, Helvetica, Arial, sans-serif"> 543</text></g></g></svg>