<svg xmlns="http://www.w3.org/2000/svg" width="609.885009765625" height="419.3722229003906" viewBox="-567.6701049804688 -217.39862060546875 609.885009765625 419.3722229003906"><title>Neo4j Graph Visualization</title><desc>Created using Neo4j (http://www.neo4j.com/)</desc><g class="layer relationships"><g class="relationship" transform="translate(-1.7851084009304827 -1.5783743967302755) rotate(539.9346970899321)"><path class="b-outline" fill="#F16667" stroke="none" d="M 40 0.5 L 117.83273630007903 0.5 L 117.83273630007903 -0.5 L 40 -0.5 Z M 150.80148630007903 0.5 L 228.63422260015807 0.5 L 228.63422260015807 3.5 L 235.63422260015807 0 L 228.63422260015807 -3.5 L 228.63422260015807 -0.5 L 150.80148630007903 -0.5 Z"/><text text-anchor="middle" pointer-events="none" font-size="8px" fill="#000000" x="134.31711130007903" y="3" transform="rotate(180 134.31711130007903 0)" font-family="Helvetica Neue, Helvetica, Arial, sans-serif">DECAY</text></g><g class="relationship" transform="translate(-1.7851084009304827 -1.5783743967302755) rotate(516.2790759221649)"><path class="b-outline" fill="#F16667" stroke="none" d="M 40 0.5 L 178.3241675101862 0.5 L 178.3241675101862 -0.5 L 40 -0.5 Z M 211.2929175101862 0.5 L 349.6170850203724 0.5 L 349.6170850203724 3.5 L 356.6170850203724 0 L 349.6170850203724 -3.5 L 349.6170850203724 -0.5 L 211.2929175101862 -0.5 Z"/><text text-anchor="middle" pointer-events="none" font-size="8px" fill="#000000" x="194.8085425101862" y="3" transform="rotate(180 194.8085425101862 0)" font-family="Helvetica Neue, Helvetica, Arial, sans-serif">DECAY</text></g><g class="relationship" transform="translate(-1.7851084009304827 -1.5783743967302755) rotate(500.5942560589045)"><path class="b-outline" fill="#F16667" stroke="none" d="M 40 0.5 L 82.76169400085963 0.5 L 82.76169400085963 -0.5 L 40 -0.5 Z M 115.73044400085963 0.5 L 158.49213800171927 0.5 L 158.49213800171927 3.5 L 165.49213800171927 0 L 158.49213800171927 -3.5 L 158.49213800171927 -0.5 L 115.73044400085963 -0.5 Z"/><text text-anchor="middle" pointer-events="none" font-size="8px" fill="#000000" x="99.24606900085963" y="3" transform="rotate(180 99.24606900085963 0)" font-family="Helvetica Neue, Helvetica, Arial, sans-serif">DECAY</text></g><g class="relationship" transform="translate(-1.7851084009304827 -1.5783743967302755) rotate(204.89654510622557)"><path class="b-outline" fill="#F16667" stroke="none" d="M 40 0.5 L 184.08680980213387 0.5 L 184.08680980213387 -0.5 L 40 -0.5 Z M 217.05555980213387 0.5 L 361.14236960426774 0.5 L 361.14236960426774 3.5 L 368.14236960426774 0 L 361.14236960426774 -3.5 L 361.14236960426774 -0.5 L 217.05555980213387 -0.5 Z"/><text text-anchor="middle" pointer-events="none" font-size="8px" fill="#000000" x="200.57118480213387" y="3" transform="rotate(180 200.57118480213387 0)" font-family="Helvetica Neue, Helvetica, Arial, sans-serif">DECAY</text></g><g class="relationship" transform="translate(-1.7851084009304827 -1.5783743967302755) rotate(221.13600751570505)"><path class="b-outline" fill="#F16667" stroke="none" d="M 40 0.5 L 90.53640569989984 0.5 L 90.53640569989984 -0.5 L 40 -0.5 Z M 123.50515569989984 0.5 L 174.0415613997997 0.5 L 174.0415613997997 3.5 L 181.0415613997997 0 L 174.0415613997997 -3.5 L 174.0415613997997 -0.5 L 123.50515569989984 -0.5 Z"/><text text-anchor="middle" pointer-events="none" font-size="8px" fill="#000000" x="107.02078069989984" y="3" transform="rotate(180 107.02078069989984 0)" font-family="Helvetica Neue, Helvetica, Arial, sans-serif">DECAY</text></g><g class="relationship" transform="translate(-523.6700923801935 -2.35777089227561) rotate(360.2449870460916)"><path class="b-outline" fill="#F16667" stroke="none" d="M 40 0.5 L 110.64225259188237 0.5 L 110.64225259188237 -0.5 L 40 -0.5 Z M 143.61100259188237 0.5 L 214.25325518376474 0.5 L 214.25325518376474 3.5 L 221.25325518376474 0 L 214.25325518376474 -3.5 L 214.25325518376474 -0.5 L 143.61100259188237 -0.5 Z"/><text text-anchor="middle" pointer-events="none" font-size="8px" fill="#000000" x="127.12662759188237" y="3" font-family="Helvetica Neue, Helvetica, Arial, sans-serif">DECAY</text></g><g class="relationship" transform="translate(-523.6700923801935 -2.35777089227561) rotate(405.2793006996863)"><path class="b-outline" fill="#F16667" stroke="none" d="M 40 0.5 L 92.83838617805469 0.5 L 92.83838617805469 -0.5 L 40 -0.5 Z M 125.80713617805469 0.5 L 178.64552235610938 0.5 L 178.64552235610938 3.5 L 185.64552235610938 0 L 178.64552235610938 -3.5 L 178.64552235610938 -0.5 L 125.80713617805469 -0.5 Z"/><text text-anchor="middle" pointer-events="none" font-size="8px" fill="#000000" x="109.32276117805469" y="3" font-family="Helvetica Neue, Helvetica, Arial, sans-serif">DECAY</text></g><g class="relationship" transform="translate(-523.6700923801935 -2.35777089227561) rotate(379.86991647658965)"><path class="b-outline" fill="#F16667" stroke="none" d="M 40 0.5 L 173.06200315766395 0.5 L 173.06200315766395 -0.5 L 40 -0.5 Z M 206.03075315766395 0.5 L 339.0927563153279 0.5 L 339.0927563153279 3.5 L 346.0927563153279 0 L 339.0927563153279 -3.5 L 339.0927563153279 -0.5 L 206.03075315766395 -0.5 Z"/><text text-anchor="middle" pointer-events="none" font-size="8px" fill="#000000" x="189.54637815766395" y="3" font-family="Helvetica Neue, Helvetica, Arial, sans-serif">DECAY</text></g><g class="relationship" transform="translate(-523.6700923801935 -2.35777089227561) rotate(337.8562146473437)"><path class="b-outline" fill="#F16667" stroke="none" d="M 40 0.5 L 171.8704250759688 0.5 L 171.8704250759688 -0.5 L 40 -0.5 Z M 204.8391750759688 0.5 L 336.7096001519376 0.5 L 336.7096001519376 3.5 L 343.7096001519376 0 L 336.7096001519376 -3.5 L 336.7096001519376 -0.5 L 204.8391750759688 -0.5 Z"/><text text-anchor="middle" pointer-events="none" font-size="8px" fill="#000000" x="188.3548000759688" y="3" font-family="Helvetica Neue, Helvetica, Arial, sans-serif">DECAY</text></g><g class="relationship" transform="translate(-523.6700923801935 -2.35777089227561) rotate(311.5652084918675)"><path class="b-outline" fill="#F16667" stroke="none" d="M 40 0.5 L 94.31700291440127 0.5 L 94.31700291440127 -0.5 L 40 -0.5 Z M 127.28575291440127 0.5 L 181.60275582880254 0.5 L 181.60275582880254 3.5 L 188.60275582880254 0 L 181.60275582880254 -3.5 L 181.60275582880254 -0.5 L 127.28575291440127 -0.5 Z"/><text text-anchor="middle" pointer-events="none" font-size="8px" fill="#000000" x="110.80137791440127" y="3" font-family="Helvetica Neue, Helvetica, Arial, sans-serif">DECAY</text></g></g><g class="layer nodes"><g class="node" aria-label="graph-node427" transform="translate(-269.91915684365745,-1.2727682703732803)"><circle class="b-outline" cx="0" cy="0" r="32.5" fill="#F16667" stroke="#eb2728" stroke-width="2px"/><text class="caption" text-anchor="middle" pointer-events="none" x="0" y="8" font-size="16px" fill="#FFFFFF" font-family="Helvetica Neue, Helvetica, Arial, sans-serif"> 428</text></g><g class="node" aria-label="graph-node428" transform="translate(-364.89429381726427,157.97359706192591)"><circle class="b-outline" cx="0" cy="0" r="40" fill="#C990C0" stroke="#b261a5" stroke-width="2px"/><text class="caption" text-anchor="middle" pointer-events="none" x="0" y="8" font-size="16px" fill="#FFFFFF" font-family="Helvetica Neue, Helvetica, Arial, sans-serif"> 429</text></g><g class="node" aria-label="graph-node429" transform="translate(-160.56270581640277,128.8696740343898)"><circle class="b-outline" cx="0" cy="0" r="40" fill="#C990C0" stroke="#b261a5" stroke-width="2px"/><text class="caption" text-anchor="middle" pointer-events="none" x="0" y="8" font-size="16px" fill="#FFFFFF" font-family="Helvetica Neue, Helvetica, Arial, sans-serif"> 430</text></g><g class="node" aria-label="graph-node430" transform="translate(-168.262586063126,-146.99027658253692)"><circle class="b-outline" cx="0" cy="0" r="40" fill="#C990C0" stroke="#b261a5" stroke-width="2px"/><text class="caption" text-anchor="middle" pointer-events="none" x="0" y="8" font-size="16px" fill="#FFFFFF" font-family="Helvetica Neue, Helvetica, Arial, sans-serif"> 431</text></g><g class="node" aria-label="graph-node433" transform="translate(-371.99856303706207,-173.3986056635042)"><circle class="b-outline" cx="0" cy="0" r="40" fill="#C990C0" stroke="#b261a5" stroke-width="2px"/><text class="caption" text-anchor="middle" pointer-events="none" x="0" y="8" font-size="16px" fill="#FFFFFF" font-family="Helvetica Neue, Helvetica, Arial, sans-serif"> 434</text></g><g class="node" aria-label="graph-node721" transform="translate(-1.7851084009304827,-1.5783743967302755)"><circle class="b-outline" cx="0" cy="0" r="40" fill="#C990C0" stroke="#b261a5" stroke-width="2px"/><text class="caption" text-anchor="middle" pointer-events="none" x="0" y="8" font-size="16px" fill="#FFFFFF" font-family="Helvetica Neue, Helvetica, Arial, sans-serif"> 722</text></g><g class="node" aria-label="graph-node727" transform="translate(-523.6700923801935,-2.35777089227561)"><circle class="b-outline" cx="0" cy="0" r="40" fill="#C990C0" stroke="#b261a5" stroke-width="2px"/><text class="caption" text-anchor="middle" pointer-events="none" x="0" y="8" font-size="16px" fill="#FFFFFF" font-family="Helvetica Neue, Helvetica, Arial, sans-serif"> 728</text></g></g></svg>