<svg xmlns="http://www.w3.org/2000/svg" width="419.0317687988281" height="250.61422729492188" viewBox="-222.89138793945312 -85.5169677734375 419.0317687988281 250.61422729492188"><title>Neo4j Graph Visualization</title><desc>Created using Neo4j (http://www.neo4j.com/)</desc><g class="layer relationships"><g class="relationship" transform="translate(-13.571389600091583 121.09725641924577) rotate(345.83096472693876)"><path class="b-outline" fill="#F16667" stroke="none" d="M 40 0.5 L 75.15166957672662 0.5 L 75.15166957672662 -0.5 L 40 -0.5 Z M 108.12041957672662 0.5 L 143.27208915345324 0.5 L 143.27208915345324 3.5 L 150.27208915345324 0 L 143.27208915345324 -3.5 L 143.27208915345324 -0.5 L 108.12041957672662 -0.5 Z"/><text text-anchor="middle" pointer-events="none" font-size="8px" fill="#000000" x="91.63604457672662" y="3" font-family="Helvetica Neue, Helvetica, Arial, sans-serif">DECAY</text></g><g class="relationship" transform="translate(-13.571389600091583 121.09725641924577) rotate(292.5002115027222)"><path class="b-outline" fill="#F16667" stroke="none" d="M 40 0.5 L 67.6040265221921 0.5 L 67.6040265221921 -0.5 L 40 -0.5 Z M 100.5727765221921 0.5 L 128.1768030443842 0.5 L 128.1768030443842 3.5 L 135.1768030443842 0 L 128.1768030443842 -3.5 L 128.1768030443842 -0.5 L 100.5727765221921 -0.5 Z"/><text text-anchor="middle" pointer-events="none" font-size="8px" fill="#000000" x="84.0884015221921" y="3" font-family="Helvetica Neue, Helvetica, Arial, sans-serif">DECAY</text></g><g class="relationship" transform="translate(-13.571389600091583 121.09725641924577) rotate(248.87365396429243)"><path class="b-outline" fill="#F16667" stroke="none" d="M 40 0.5 L 67.18132630525112 0.5 L 67.18132630525112 -0.5 L 40 -0.5 Z M 100.15007630525112 0.5 L 127.33140261050224 0.5 L 127.33140261050224 3.5 L 134.33140261050224 0 L 127.33140261050224 -3.5 L 127.33140261050224 -0.5 L 100.15007630525112 -0.5 Z"/><text text-anchor="middle" pointer-events="none" font-size="8px" fill="#000000" x="83.66570130525112" y="3" transform="rotate(180 83.66570130525112 0)" font-family="Helvetica Neue, Helvetica, Arial, sans-serif">DECAY</text></g><g class="relationship" transform="translate(-13.571389600091583 121.09725641924577) rotate(194.88021629410525)"><path class="b-outline" fill="#F16667" stroke="none" d="M 40 0.5 L 65.54381863420677 0.5 L 65.54381863420677 -0.5 L 40 -0.5 Z M 98.51256863420677 0.5 L 124.05638726841354 0.5 L 124.05638726841354 3.5 L 131.05638726841354 0 L 124.05638726841354 -3.5 L 124.05638726841354 -0.5 L 98.51256863420677 -0.5 Z"/><text text-anchor="middle" pointer-events="none" font-size="8px" fill="#000000" x="82.02819363420677" y="3" transform="rotate(180 82.02819363420677 0)" font-family="Helvetica Neue, Helvetica, Arial, sans-serif">DECAY</text></g></g><g class="layer nodes"><g class="node" aria-label="graph-node721" transform="translate(-13.571389600091583,121.09725641924577)"><circle class="b-outline" cx="0" cy="0" r="40" fill="#C990C0" stroke="#b261a5" stroke-width="2px"/><text class="caption" text-anchor="middle" pointer-events="none" x="0" y="8" font-size="16px" fill="#FFFFFF" font-family="Helvetica Neue, Helvetica, Arial, sans-serif"> 722</text></g><g class="node" aria-label="graph-node427" transform="translate(163.64036709668628,76.35767816955874)"><circle class="b-outline" cx="0" cy="0" r="32.5" fill="#F16667" stroke="#eb2728" stroke-width="2px"/><text class="caption" text-anchor="middle" pointer-events="none" x="0" y="8" font-size="16px" fill="#FFFFFF" font-family="Helvetica Neue, Helvetica, Arial, sans-serif"> 428</text></g><g class="node" aria-label="graph-node428" transform="translate(53.466468086804795,-40.74475902051079)"><circle class="b-outline" cx="0" cy="0" r="40" fill="#C990C0" stroke="#b261a5" stroke-width="2px"/><text class="caption" text-anchor="middle" pointer-events="none" x="0" y="8" font-size="16px" fill="#FFFFFF" font-family="Helvetica Neue, Helvetica, Arial, sans-serif"> 429</text></g><g class="node" aria-label="graph-node429" transform="translate(-76.40491883122705,-41.51696663797968)"><circle class="b-outline" cx="0" cy="0" r="40" fill="#C990C0" stroke="#b261a5" stroke-width="2px"/><text class="caption" text-anchor="middle" pointer-events="none" x="0" y="8" font-size="16px" fill="#FFFFFF" font-family="Helvetica Neue, Helvetica, Arial, sans-serif"> 430</text></g><g class="node" aria-label="graph-node430" transform="translate(-178.89136795898526,77.17013062280431)"><circle class="b-outline" cx="0" cy="0" r="40" fill="#C990C0" stroke="#b261a5" stroke-width="2px"/><text class="caption" text-anchor="middle" pointer-events="none" x="0" y="8" font-size="16px" fill="#FFFFFF" font-family="Helvetica Neue, Helvetica, Arial, sans-serif"> 431</text></g></g></svg>