<svg xmlns="http://www.w3.org/2000/svg" width="406.0958251953125" height="254.55856323242188" viewBox="-200.22772216796875 -88.79234313964844 406.0958251953125 254.55856323242188"><title>Neo4j Graph Visualization</title><desc>Created using Neo4j (http://www.neo4j.com/)</desc><g class="layer relationships"><g class="relationship" transform="translate(13.329900593423378 121.76622000799908) rotate(341.5255500531432)"><path class="b-outline" fill="#F16667" stroke="none" d="M 40 0.5 L 66.02391570986099 0.5 L 66.02391570986099 -0.5 L 40 -0.5 Z M 98.99266570986099 0.5 L 125.01658141972197 0.5 L 125.01658141972197 3.5 L 132.01658141972197 0 L 125.01658141972197 -3.5 L 125.01658141972197 -0.5 L 98.99266570986099 -0.5 Z"/><text text-anchor="middle" pointer-events="none" font-size="8px" fill="#000000" x="82.50829070986099" y="3" font-family="Helvetica Neue, Helvetica, Arial, sans-serif">DECAY</text></g><g class="relationship" transform="translate(13.329900593423378 121.76622000799908) rotate(287.39707923348425)"><path class="b-outline" fill="#F16667" stroke="none" d="M 40 0.5 L 67.28709277762339 0.5 L 67.28709277762339 -0.5 L 40 -0.5 Z M 100.25584277762339 0.5 L 127.54293555524677 0.5 L 127.54293555524677 3.5 L 134.54293555524677 0 L 127.54293555524677 -3.5 L 127.54293555524677 -0.5 L 100.25584277762339 -0.5 Z"/><text text-anchor="middle" pointer-events="none" font-size="8px" fill="#000000" x="83.77146777762339" y="3" font-family="Helvetica Neue, Helvetica, Arial, sans-serif">DECAY</text></g><g class="relationship" transform="translate(13.329900593423378 121.76622000799908) rotate(241.69462835838215)"><path class="b-outline" fill="#F16667" stroke="none" d="M 40 0.5 L 67.23246995248414 0.5 L 67.23246995248414 -0.5 L 40 -0.5 Z M 100.20121995248414 0.5 L 127.43368990496828 0.5 L 127.43368990496828 3.5 L 134.43368990496828 0 L 127.43368990496828 -3.5 L 127.43368990496828 -0.5 L 100.20121995248414 -0.5 Z"/><text text-anchor="middle" pointer-events="none" font-size="8px" fill="#000000" x="83.71684495248414" y="3" transform="rotate(180 83.71684495248414 0)" font-family="Helvetica Neue, Helvetica, Arial, sans-serif">DECAY</text></g><g class="relationship" transform="translate(13.329900593423378 121.76622000799908) rotate(189.13833870156827)"><path class="b-outline" fill="#F16667" stroke="none" d="M 40 0.5 L 65.88430308200935 0.5 L 65.88430308200935 -0.5 L 40 -0.5 Z M 98.85305308200935 0.5 L 124.7373561640187 0.5 L 124.7373561640187 3.5 L 131.7373561640187 0 L 124.7373561640187 -3.5 L 124.7373561640187 -0.5 L 98.85305308200935 -0.5 Z"/><text text-anchor="middle" pointer-events="none" font-size="8px" fill="#000000" x="82.36867808200935" y="3" transform="rotate(180 82.36867808200935 0)" font-family="Helvetica Neue, Helvetica, Arial, sans-serif">DECAY</text></g></g><g class="layer nodes"><g class="node" aria-label="graph-node1489" transform="translate(13.329900593423378,121.76622000799908)"><circle class="b-outline" cx="0" cy="0" r="40" fill="#C990C0" stroke="#b261a5" stroke-width="2px"/><text class="caption" text-anchor="middle" pointer-events="none" x="0" y="8" font-size="16px" fill="#FFFFFF" font-family="Helvetica Neue, Helvetica, Arial, sans-serif"> 1490</text></g><g class="node" aria-label="graph-node1195" transform="translate(169.3681294307383,69.63392000746431)"><circle class="b-outline" cx="0" cy="0" r="32.5" fill="#F16667" stroke="#eb2728" stroke-width="2px"/><text class="caption" text-anchor="middle" pointer-events="none" x="0" y="8" font-size="16px" fill="#FFFFFF" font-family="Helvetica Neue, Helvetica, Arial, sans-serif"> 1196</text></g><g class="node" aria-label="graph-node1196" transform="translate(65.51686773749054,-44.792348707474346)"><circle class="b-outline" cx="0" cy="0" r="40" fill="#C990C0" stroke="#b261a5" stroke-width="2px"/><text class="caption" text-anchor="middle" pointer-events="none" x="0" y="8" font-size="16px" fill="#FFFFFF" font-family="Helvetica Neue, Helvetica, Arial, sans-serif"> 1197</text></g><g class="node" aria-label="graph-node1197" transform="translate(-69.38145370832473,-31.810939893573956)"><circle class="b-outline" cx="0" cy="0" r="40" fill="#C990C0" stroke="#b261a5" stroke-width="2px"/><text class="caption" text-anchor="middle" pointer-events="none" x="0" y="8" font-size="16px" fill="#FFFFFF" font-family="Helvetica Neue, Helvetica, Arial, sans-serif"> 1198</text></g><g class="node" aria-label="graph-node1198" transform="translate(-156.2277232036379,94.49110837667402)"><circle class="b-outline" cx="0" cy="0" r="40" fill="#C990C0" stroke="#b261a5" stroke-width="2px"/><text class="caption" text-anchor="middle" pointer-events="none" x="0" y="8" font-size="16px" fill="#FFFFFF" font-family="Helvetica Neue, Helvetica, Arial, sans-serif"> 1199</text></g></g></svg>